<svg xmlns="http://www.w3.org/2000/svg" viewBox="0 0 100 100"><path d="M0 0h100v100H0V0z"/><path fill="#fff" d="M74.6 54.9l-.7 2c2.4 0 5.6 1.4 5.6 2.9v9.5c0-.2-.2 5.4-7.8 5.4-13.7 0-15.6-10-15.6-20 0-6.7 2.4-13 5.8-17 3.4-3.8 9.8-3.6 15-3 5 .4 6.8 8.7 6.8 8.7l1.7-.5.2-13.2s-.7-.7-1.2-.5c-.5.3-2.4 1-3.7 1-1 0-4.6-.7-8.3-.7-6.6 0-13 1.4-17.8 8a32 32 0 00-3.4 6.1V28c0-8 4.1-6.3 4.6-7 .5-1.3.5-1.3-.2-1.5H39.9s-2 1.4-.7 1.4c5.4.5 7.6 2.5 7.6 7.4v25.4c0 6.6-5.1 10.5-12.5 10.5C27 64.2 22 59.5 22 51.5v-23c0-8 4.1-6.6 4.4-7.6.7-1 .7-1.2 0-1.2 0 0-9.3.5-16.2 0 0 0-2 1.5-.7 1.5 5.4.5 5.4 2.9 5.4 8v26.2s-.5 13.9 17.8 13.9c7.8 0 12.5-3.2 15-6.4l1.1-1.7c.3 2.5.8 5 1.5 7.1 3 9.6 14 12.2 17.6 12.2 4.6 0 4.6 0 8.8-2.9 2.2-1.2 10.2-4.4 10.2-4.4V59.8c0-2.2 4-3.2 4-3.2l.2-1.7H74.6z"/></svg>