<svg xmlns="http://www.w3.org/2000/svg" viewBox="0 0 150 90"><path d="M0 0h150v90H0V0z"/><path fill="#fff" d="M116 25.5s-1.3-.4-1.3 2.6V39c0 1.7.4 2.6 1.7 2.6v.9h-5.6v-.9c0-.4 1.8 0 1.8-1.7V28.6c0-3-2.6-3-2.6-3s-.5-1 .8-1h5.2l.4.5-.4.4m-57.8 19l-6-15.5c-1.4-3.5-2.7-3.5-2.7-3.5s0-.8 1.3-.8h5.6l-.4.8c-.9 0-1.7.9-.9 3L58.6 39l3.5-8.6c.8-3 .4-3.9-1-4.3-1.2-.9-.3-1.3-.3-1.3h5.1v.8c-1.3 0-2.1 3.5-2.6 4.8L58.6 44l-.4.4m19 7c-.5.8-1 .8-2.2.8l-3 .4v-5.2h4.7s1.8 0 2.2 1.8c.4 1.7 1.7.4 1.3-.5l-.5-3H68.1c-1.7 0-.9.9-.9.9s2.2 0 2.2 3v10.8c0 1.7-1.3 1.7-1.7 2.2-.5.4 0 .4.4.4h12l.5-3.9s0-1.3-.9 0c-.8 1.3-.8 2.6-3.8 2.6s-4-.4-4-1.3v-6s.5-1 1.4-1H75s1.7.5 2.2 2.3l.4-.5V52l-.4-.5M91 24.7c1.7 0 3.4 1.7 3.4 3.9 0 2.5-3 4.3-4.7 4.3 0 0 2.1 1.3 4.7 5.6 2.6 3.9 5.2 4.7 7.8 5.2 1.3 0 3.4-.5 5.6-1.8 1.7-.8.4.5.4.5 0 .4-3 2.6-6.9 2.6-5.2 0-8.2-4-9.9-6.5l-3.5-4.8c-.8-.8-2.1-.4-2.1-.4v6.5s0 1.3 1.3 1.3c1.3.4.4.8.4.8H82v-.4c0-.4 1.7 0 1.7-1.7V28.6c.5-3-2.1-3.5-2.1-3.5l1.3-.4H91M89.2 26l-3.4.4v5.2l3 .4 2.2-.9.8-2.1c0-1.3-.8-2.6-2.6-3z"/><path fill="#fff" d="M109.1 24.7h-1.3l-3.9-.5c-3 0-5.6 2.6-5.6 4.8 0 2.6 1.7 4.3 4.8 4.7 2.5.9 4.3 1.3 4.3 4 0 2-2.2 3-4 3a5.9 5.9 0 01-4.7-3c-.8-1-.4-1.8-.4-1.8l-.9.4v3c-.4 1 2.2 3 5.7 3 4.3 0 6.9-2 6.9-6.4 0-3.5-4.4-4.3-5.7-4.3-1.2 0-3.4-1.3-3.4-3 0-1.8 2.2-2.6 3.4-2.6 1.8 0 2.6.4 3.5 1.3l.4 1.7h.9l-.4-2.6.4-1.7m9.5.4h10l1.6-.4.5.8V29c0 .4-.9.9-.9 0-.4-2.2-.8-2.6-2.6-2.6-.8 0-2.1 0-2.1.9v13c0 .8 1.7 1.2 2.1 1.2l-.4.9h-6s-.5-.9.4-.9c.8 0 1.3-1.3 1.3-1.7V27.3s.4-.9-.9-.9c-1.7 0-3-.4-3.4 2.6-.5.4-.9.9-.9 0v-3.5c-.4-.8 0-.8 1.3-.4M31 45.8h.8v3c-1.3 0-1.3-.8-1.3-1.3 0-.4-2.1.5-3.8 2.2-1.8 1.3-2.2 3-2.2 3s2.2 0 2.6-.8l.4.4v3l-.8.5s.8-2.2-1.3-2.2H24s-.9 4.3-3.5 6.9c-2.6 2.6-6 3.5-8.2 1.7v-.8l2.6.8c1.7 0 3.9-.8 5.2-3.4l2.1-5.2h-.8v-.9h1.3s.4-2.1 2.6-3.9c1.7-1.3 3.4-2.5 5.6-3m16.8 0v6l-.9.5s-.8-3.9-3.4-4.3c-2.2-.5-5.6-.5-7 1.3a12.4 12.4 0 00-2.5 8.2c0 4.7.9 9.5 7.3 9.5 3.5 0 3.5-3 3.5-2.6v-4.8c0-.4-1.3-1.3-2.6-1.3l.4-.8h7.8v.8s-2.2.5-2.2 1.8v6l-4.7 2.2c-2.2 1.3-1.7 1.3-3.9 1.3S32.3 68.3 31 64c-1.3-4.4-1.3-10 2.1-14.7 2.2-3 5.2-4 8.7-4l3.9.5 1.7-.4.4.4m2.6 0H56v.9s-1.7.4-1.7 1.3v10.3c0 2.2 2.1 3.5 3.9 3.5 1.3 0 4.7-1.3 4.7-4.3V48c0-.5-.4-1.3-2.1-1.3l.4-.9h4.7v.9s-1.3.4-1.3 1.3v8.6c0 3.9-3 7-6.4 7-4.3 0-6.5-1.8-6.5-5.3V47.5l-1.7-.8c-.9 0 .4-.9.4-.9m31 0H88l-.4.9s-1.7-.4-1.7 2.1v11.7c0 .4-.4.9.9 1.3l4.7-.4c1.7-.9 2.2-2.6 2.2-2.6h.4l-.4 3.9c0 .8-.5.4-1.8.4H81.5v-.4s1.7 0 1.7-3.5V48c0-1.7-1.3-.9-2.2-1.3l.5-.9m13.4.5l5.1-.5c2.6 0 4.3 0 6 .9a4 4 0 011.8 3.4c0 1.8-1.3 3-2.2 4-1.7 1.2-3 1.2-6.4.8v6c0 .5.8 1.3 2.1 1.3l-.4.9h-6l.4-.4 1.3-1.8V48.4c0-.4-.5-1.3-1.7-1.3v-.8m4.3 6.9s0 .8 3 .8c1.7 0 3-2.1 3-3.4 0-1.3-1.3-2.6-2.6-3h-3.4v5.6zm24.6 9.9v-.4s-1.3 0-1.3-2.2v-13c0-.8 1.7-1.2 1.7-1.2v-.5h-5.6l-.4.9s1.7 0 1.7 1.3v4.7h-7.4l-.4-.4V48c0-1.3 1.3-1.3 1.3-1.3v-.9h-5.2l-.4.9s1.7-.4 1.7.8v13c0 .9-.4 2.2-1.3 2.2v.4h5.2s.9-.4 0-.9c-.9 0-1.3-.4-1.3-1.7v-6l.5-.5h7.3v6.5c0 1.7-.9 1.7-1.3 2.2v.4h5.2M20.2 29c0-2.6-.9-3.5-3.5-3.5-.4-.4.5-.8.5-.8h7.3v.4c0 .4-2.2-.4-2.2 3.5v12c0 2.6-1.7 4.4-1.7 4.4-1.3 1.7-3.4 3-6.9 3-8.6 0-8.6-6.5-8.6-6.5V29c0-2.2 0-3.5-2.6-3.5l.4-.8h7.8v.8c-.4 0-2.2-.4-2.2 3.5v10.8c0 3.9 2.6 6 6 6 3.5 0 5.7-2.1 5.7-5.2V29M40 29c0-3.9 1.8-3 1.8-3.5v-.8l-5.2.4s-.9.4 0 .4c2.1.5 2.1 1.3 2.1 3.5v8.6c-.4.5-8.6-11.6-8.6-11.6l-.4-1.3h-3.9l-.4.8c2.6 0 2.6.9 2.6 3.5v9c0 4-2.2 3-2.2 3.5v.9H31s1.3-.9.4-.9c-2.6 0-2.2-.9-2.2-3.4v-8.7s8.2 10.4 9.1 13.4c0 0 .4.9.9.4l.4-.4.4-.9V29m32.4 4l3-.5c.9 0 1.8 1.3 1.8 2.2 0 .9.8 0 .8-.4v-3.5c0-.8-.4-.4-.8-.4l-1.8 1.3h-3v-5.2h4.8s1.7 0 2.5 1.7c.5 1.3 1 .5.5-.4l-.5-3H68.1l-.9.8s2.6 0 2.6 2.6v11.2c0 1.8-2.1 1.8-2.1 1.8l.8.8H79s1.3.5 1.7 0l.4-3.8s0-1-.8 0c-.5.4-.5 2.5-4 2.5-3 0-3.8-.4-3.8-1.3V33m69.5 9.5l.9-.5c.4-.4 0-.4-.5-.4-.4 0-1.3-.4-1.3-1.7V35l3.5-6.4.4-.9c.5-.9.9-1.7 1.7-1.7l1-.5v-.4h-5.3c-.4 0-.8 0-.4.4l1.3.5c.4 0 .9.8.4 1.7l-3.4 5.6-3.5-5.6c-.4-.9-.4-1.7.5-1.7l.8-.5v-.4h-6s-.9 0 0 .4l1.3.9 5.1 9v4.4c0 1.3-.4 1.7-.8 1.7l-.9.4 1.3.5h3.9m5.2-19.5H2l.8-.8h145l-.8.8m-99.7 5.2c0-2.6 1.3-2.6 1.3-2.6l.4-.4h-5.2l-.4-.4c-1.3 0-.9.8-.9.8s2.2 0 2.2 3v11.3c0 1.7-1.3 1.7-1.3 1.7v.9h5.2l.4-.9c-1.3 0-1.7-.4-1.7-2.6V28.1m76.4 37.6H50.4l.4-.5h73.4l-.4.5M14.6 54c-.5.9-1.3 1.8-1.3 3-.9 3.5 1.7 3.5 3 3.5 1.7-.4 3.9-2.6 4.3-5.6.4-3.9-3.4-3.9-6-.9m3.4 3c-.8 1.3-1.3 2.2-2.6 1.8-1.3 0-.8-2.2.5-4 .8-1.2 2.6-1.6 3-.8.4.9 0 2.2-.9 3z"/></svg>