<svg xmlns="http://www.w3.org/2000/svg" xml:space="preserve" viewBox="0 0 260 141"><g fill="#fff"><path d="M223.87 71.503c-2.899.217-5.81.227-8.71.03-1.23-.07-1.43-.07-1.51 0-.08.08-.78.76-.64 1.16.05.14.17.22.38.25 2.21.26 2.72 1.11 2.72 4.51l.01 6.43H202.6l-.01-7.96c0-2.05 1.13-2.46 1.88-2.73.36-.13.64-.23.64-.5 0-.2.05-.39.1-.56.06-.22.11-.4.01-.52-.09-.11-.27-.11-.39-.1-3.56.32-6.38.13-7.89.02-.95-.06-1.11-.07-1.19 0-.08.08-.78.76-.64 1.16.05.14.17.22.38.25 2.19.26 2.69 1.1 2.69 4.51l.02 20.68c0 2.05-1.31 2.46-2.18 2.74-.43.13-.74.23-.74.5 0 .2-.05.39-.1.56-.06.22-.12.4-.01.53.09.11.27.11.39.1 3.55-.32 6.59-.13 8.23-.03l1.03.05c.18 0 .25-.02.29-.05.08-.08.78-.76.64-1.16-.05-.14-.17-.22-.38-.25-2.22-.26-2.76-1.15-2.76-4.52l-.01-10.13h13.52l.01 11.67c0 2.05-1.18 2.47-1.97 2.74-.37.13-.67.23-.67.5 0 .2-.05.39-.1.56-.06.22-.12.4-.01.53.09.11.27.11.39.1 3.54-.32 6.7-.13 8.39-.03 1.12.07 1.3.07 1.38 0 .08-.08.78-.76.64-1.16-.05-.14-.17-.22-.38-.25-2.22-.26-2.76-1.15-2.76-4.52l-.03-20.68c0-2.05 1.41-2.46 2.34-2.73.46-.13.79-.23.79-.5 0-.2.05-.39.1-.56.06-.22.11-.4.01-.52-.09-.13-.26-.13-.38-.12ZM75.39 92.043h.14c1.83 0 4.16 1.14 4.16 2.03v7.43l-.01.03c-.15.93-1.04 3.96-6.01 3.96h-.27c-6.34 0-9.27-3.61-10.61-6.67-3.1-7.05-.75-17.23 3.42-21.62 1.41-1.48 4.78-3.76 11.57-2.39 3.91.79 5.17 6.69 5.18 6.75l.02.11 1.46-.49.3-10.34-.02-.03c-.54-.73-1.43-.38-2.29-.04-.55.22-1.12.45-1.61.43-4.4-.9-15.18-2.15-20.31 5.73-5.35 7.02-6.38 17.7-2.46 25.38 2.62 5.14 7.02 7.95 12.41 7.95h.38c3.45 0 3.45 0 6.38-1.91l.36-.24c1.66-1.08 7.89-3.38 7.95-3.4l.07-.03v-10.47c0-1.75 3.02-2.45 3.05-2.46l.07-.02.16-1.47h-13l-.49 1.78Zm43.26-20.81c-2.23.21-5.93.09-8.15.02-1.96-.06-1.97-.05-2.03.01-.05.05-.53.54-.43.83.02.07.09.16.28.19 1.59.2 4.26 1.22 4.21 3.8l-.14 16.16a6.291 6.291 0 0 1-3.4 5.65 8.4 8.4 0 0 1-8.26-.04c-2.22-1.37-3.37-3.85-3.24-7l.02-14.85c0-2.22 1.24-2.67 2.06-2.96.39-.14.7-.25.7-.53 0-.22.06-.42.11-.61.07-.24.12-.43.01-.56-.1-.11-.27-.11-.4-.1-3.62.34-7.03.14-8.86.03-1.23-.07-1.43-.08-1.51 0-.08.08-.8.82-.66 1.25.03.1.13.22.39.26 2.13.27 3.22 1.1 3.22 4.88l-.03 15.45c.04 3 1.29 5.55 3.63 7.38a12.768 12.768 0 0 0 7.74 2.52h.1c5.78-.04 11.6-3.69 11.57-11.75-.01-2.7.16-16.36.16-16.5 0-1.38 1.4-1.81 2.33-2.1.49-.15.78-.24.78-.45 0-.13.03-.27.06-.39.05-.2.09-.38-.01-.49-.04-.08-.13-.11-.25-.1Zm49.72 23.14c0 .02-.45 1.91-1.87 3.4a5.292 5.292 0 0 1-2.82 1.49c-3.03.61-6.82.85-8.38-.3a1.797 1.797 0 0 1-.75-1.29c-.07-.71-.02-21.51-.02-21.72 0-2.05 1.52-2.47 2.52-2.74.49-.13.84-.23.84-.5 0-.2.05-.39.1-.56.06-.23.11-.41.01-.53-.09-.11-.26-.11-.37-.1-3.33.31-7.09.13-9.1.03-1.51-.07-1.69-.07-1.76 0-.08.08-.75.77-.61 1.17.03.09.12.21.36.24 2.03.25 3.13 1.05 3.13 4.53l.01 17.51c0 6.15-2.81 6.39-2.84 6.39l-.14.01.38 1.13h.08c.14 0 13.96-.46 17.78-.16l1.01.09c.55.05 1 .1 1.37.1.71 0 1.15-.16 1.43-.71.47-.94.77-7.33.78-7.6l.01-.13-1.13.18-.02.07Zm22.62-21.3c-2.69-2.16-9.17-1.66-14.39-1.26-1.58.12-3.08.24-4.23.25-.92-.05-1.01-.04-1.07.02-.08.08-.78.76-.64 1.16.05.14.17.22.38.25 2.28.27 2.86 1.2 2.86 4.51l.02 19.83c0 2.06-1.24 2.54-2.06 2.86-.4.16-.69.27-.69.53 0 .2-.05.39-.1.56-.06.22-.12.4-.01.53.09.11.27.11.39.1 3.52-.31 7.02-.13 8.91-.03.67.04 1.05.05 1.27.05.22 0 .28-.02.32-.05.09-.08.8-.93.64-1.4-.03-.1-.13-.24-.38-.26-2.16-.26-3.49-1.1-3.49-4.52l-.01-7.58c0-.28.07-.49.19-.6.08-.07.17-.1.29-.1l1.17.08c2.84.22 7.13.54 9.88-1.23a8.982 8.982 0 0 0 4.07-7.36 7.502 7.502 0 0 0-3.32-6.34Zm-5.32 12.41c-.74.35-1.6.53-2.55.53h-.03c-2.68-.01-3.68-.53-4.05-.96-.22-.26-.19-.47-.19-.49v-9.94c5.24-1.02 9.01.31 10.08 3.56a6.2 6.2 0 0 1-3.26 7.3Zm-41.49 8.66c-.36-.08-.77.3-1.26 1.15-.23.39-.42.77-.6 1.14-.95 1.9-1.63 3.28-6.08 3.28-5.31 0-6.98-.28-7.13-2.06-.15-1.77-.01-10.42 0-11.04.11-.14.78-.85 2.51-.85h3.07c.03 0 2.71.25 3.29 3.15.05.23.17.32.27.34.4.12 1.07-.53 1.14-.6l.03-.03v-6.23a.9.9 0 0 0-.42-.56c-.22-.12-.48-.12-.78-.02l-.05.02-.02.05c-.37 1.29-1.61 1.35-3.77 1.35-2.03 0-4.69.36-5.28.45v-9.01h8.36c.03 0 3.47.19 4.21 3.15.3 1.2.71 1.53 1 1.6.23.06.46-.03.66-.25.4-.46.62-1.48.23-2.49-.75-1.96-.76-5.32-.76-5.35v-.12l-2.34.24h-18.48c-.9 0-1.48.21-1.71.61-.28.49.06 1.06.08 1.09l.03.05h.06c.01 0 1.43-.04 2.54 1.03.9.86 1.35 2.19 1.35 3.95l.02 19.48c0 2.18-1.26 2.71-2.09 3.07-.32.14-.58.24-.67.42-.37.68-.45 1.01-.33 1.21.12.2.43.19.85.18l.34-.01c.12 0 11.68-.3 18.38 0 .24.01.5.07.78.13.31.07.65.15.96.15.44 0 .84-.14 1.12-.64.73-1.27 1.08-6.59 1.09-6.84.02-.11-.09-1.08-.6-1.19Zm-112.71-2.48a2.7 2.7 0 0 0 1.63.49c.64 0 1.27-.16 1.78-.31 2.22-.67 4.81-4.4 4.81-8.21 0-2.16-.77-3.56-2.18-3.93-1.92-.51-4.54 1.08-5.98 3.61-.66 1.17-1.45 2.88-1.44 4.4.03 1.97.49 3.3 1.38 3.95Zm1.87-7.19c.69-1.26 1.56-2.12 2.41-2.36.16-.04.31-.07.46-.07.25 0 .49.06.7.19 1.05.6.85 3.15-.04 4.74-.92 1.64-1.85 2.76-3.39 2.89-.42.03-.74-.11-.95-.43-.59-.9-.24-3.03.81-4.96Z"/><path d="M54.37 70.083a1.75 1.75 0 0 0-1.3-.22c-5.09.98-7.12 5.32-8.59 10.12-.76.01-1.57-.01-2.44-.06a.37.37 0 0 0-.3.14.37.37 0 0 0-.06.32l.16.51c.16.49.61.82 1.12.82h1.01l-.36 1.29c-1.78 6.44-4.08 12.88-11.28 12.12-.17-.02-.38-.1-.49.02a.52.52 0 0 0-.14.46l.06.38c.03.17.17.3.35.34 4.6 1.11 8.46-1.54 10.22-3.88 1.93-2.56 3.11-6.01 3.94-9.51l.29-1.22c2.76-.03 3.05.16 3.23.28.11.08.2.12.48.12.08 0 .15-.04.19-.1a.23.23 0 0 0 .04-.21l-.35-1.09a1.1 1.1 0 0 0-1.05-.76l-2.09.01c.91-3.38 2.09-6.26 4.64-7.44h.01l.03-.01c.6-.29.85-.26.95-.18.19.14.12.62.05 1.04-.08.51-.16 1.04.14 1.26.24.18.66.1 1.33-.23l.05-.02.64-3.46v-.02a1.19 1.19 0 0 0-.48-.82Zm-17.48-38.41c-2.72.26-7.37.11-10.15.03-2.33-.07-2.48-.07-2.54 0-.08.08-.64.76-.51 1.13.03.09.11.19.31.22.97.12 2.43.5 3.6 1.21 1.47.88 2.2 2.05 2.18 3.47l.02 20.02a8.34 8.34 0 0 1-4.62 7.34 10.58 10.58 0 0 1-10.28-.61c-2.85-1.88-4.28-5.03-4.03-8.86l.02-18.32c0-2.74 1.66-3.39 2.76-3.82.52-.2.89-.35.89-.67 0-.3.09-.52.15-.69.06-.16.11-.28.03-.38-.08-.1-.24-.1-.49-.08-4.43.42-8.59.17-10.83.04-1.47-.09-1.74-.1-1.83-.01a1.192 1.192 0 0 1-.11.1c-.39.35-.79.75-.69 1.06.05.15.2.24.46.27 2.66.33 4.01 1.35 4.01 6l-.04 19.47a11.16 11.16 0 0 0 5.99 10.04 15.78 15.78 0 0 0 7.52 1.83c3.03 0 6.09-.79 8.6-2.35 4.23-2.63 6.43-7.03 6.21-12.4-.14-3.3-.06-19.76-.05-19.93 0-1.71 1.66-2.24 2.76-2.6.56-.18.9-.29.9-.52 0-.17.04-.32.08-.46.05-.19.09-.34 0-.45-.08-.09-.22-.09-.32-.08Zm31.25.33c-2.11.2-5.62.09-7.71.02-1.86-.06-1.87-.05-1.93.01-.08.08-.51.71-.4 1.04.04.11.13.18.26.19 1.59.2 4.26.84 4.26 2.9l-.04 18.56c-.39-.34-1.81-2.07-6.57-8.89-4.45-6.37-9.53-13.91-9.59-13.99l-.04-.06-.07.03c-.03.01-.89.29-6.41-.16h-.04l-.03.02c-.19.13-1.13.82-1.02 1.23.04.15.19.23.45.25 3.89.32 3.87 1.6 3.84 5.01l-.01 1.12-.03 19.66c0 1.31-1.77 1.88-2.83 2.22-.61.2-.92.3-.92.49 0 .11-.02.25-.05.41-.06.33-.11.65.03.8.04.04.11.09.22.08 2.11-.2 5.9-.09 8.17-.02 2.05.06 2.06.05 2.12 0 .1-.1.51-.83.39-1.18a.3.3 0 0 0-.25-.2c-1.53-.19-4.11-.82-4.11-2.9l-.02-18.38c1.67 2.12 14.64 18.74 16.1 23.73.01.03.2.69.64.79l.11.01c.21 0 .42-.13.65-.38.4-.46.61-.54.84-.63.12-.05.25-.1.41-.2.57-.36.58-.64.62-1.26v-.05l-.02-26.53c0-1.31 1.45-1.9 2.41-2.29.51-.2.79-.32.79-.51 0-.12.03-.25.06-.37.05-.2.09-.37-.01-.48-.06-.08-.15-.1-.27-.09Zm190.77.11c-2.24.21-5.84.09-8 .02-1.82-.06-1.9-.05-1.96 0-.05.05-.52.54-.42.83.02.07.09.16.28.18h.32a3.37 3.37 0 0 1 2.69 1.82c.29.66.24 1.37-.14 2.06l-5.87 9.71-5.32-9.2c-.66-1.32-.78-2.62-.33-3.47.31-.58.85-.92 1.61-1.01l.59-.01c.19-.02.26-.12.29-.19.11-.31-.4-.82-.45-.88-.06-.06-.15-.07-2.25 0-2.45.07-6.55.2-8.95-.03-.16-.01-.27.02-.33.1-.11.14-.04.37.06.66l.05.16c.05.16.24.2.52.27.65.15 1.86.42 2.87 2.4l8.42 15.59.07 6.72c-.02 2.86-1.3 3.1-2.06 3.24-.33.06-.62.12-.62.4 0 .23-.06.45-.11.64-.07.25-.12.45-.01.58.1.12.28.11.41.1 3.85-.36 6.9-.14 8.55-.03.51.04.82.06 1 .06.18 0 .24-.02.28-.06.03-.03.84-.85.69-1.3-.05-.15-.18-.23-.4-.26-2.34-.29-2.96-1.34-3-5.07l.02-6.27 8.15-14.59a4.48 4.48 0 0 1 2.93-1.99c.4-.11.64-.17.64-.37 0-.13.04-.26.07-.38.04-.16.08-.29 0-.39-.08-.05-.21-.05-.29-.04Zm-56.72 29.22c-2.04-.25-3.14-1.05-3.14-4.51l-.03-20.51c0-2.05 1.36-2.51 2.26-2.82.44-.15.75-.26.75-.52 0-.2.05-.39.1-.56.06-.22.11-.4.01-.52-.09-.11-.25-.1-.37-.09-3.31.31-7 .13-8.97.03-1.47-.07-1.65-.07-1.72 0-.08.08-.74.76-.61 1.16.03.09.12.21.36.24 1.83.23 4 1.26 4 4.88l.02 20.25c0 2.05-1.25 2.46-2.07 2.74-.39.13-.7.23-.7.49 0 .2-.05.39-.1.56-.06.22-.11.4-.01.52.09.11.25.1.37.09 3.35-.31 6.5-.13 8.19-.03l1.11.05c.19 0 .26-.02.29-.05.08-.08.74-.76.61-1.16-.03-.09-.11-.21-.35-.24Zm-21.78-17.36c-.55-.07-1.2-.17-1.83-.36-1.75-.53-4.74-1.82-5.21-4.44-.08-.45-.06-.92.06-1.42.47-1.98 2.52-4.07 6.74-3.44 4.01.6 6.03 3.03 6.01 5.18 0 .1.09.17.18.14l1.15-.34a.28.28 0 0 0 .21-.31 45.093 45.093 0 0 1-.43-4.05c0-.9.24-2.21.38-2.91.15-.73-.06-.56-.06-.56-1.01.52-2.81.26-4.71-.01-1.35-.2-2.74-.4-3.85-.3-6.38.3-9.96 4.51-10.21 8.51a7.117 7.117 0 0 0 1.81 5.22c1.44 1.62 3.65 2.73 6.39 3.21 4.42.97 6.92 2.06 7.48 5.09a5.61 5.61 0 0 1-.19 2.79c-1.2 3.54-4.86 4.11-7.89 3.45-5.15-1.11-7.06-4.52-6.85-7.49 0-.06-.05-.1-.1-.08l-1.51.51a.2.2 0 0 0-.14.21c.17 1.52.35 4.23.03 5.51-.09.37.1.88.53 1.44 1.41 1.81 4.06 3.48 8.5 3.48l.46.01c7.8 0 11.72-4.79 12.07-9.32.31-4.22-2.35-8.84-9.02-9.72Zm48.36-12.05c-.18-.19-.44-.27-.81-.25-.38.02-.86.14-1.47.37-.12.04-.25.07-.37.07h-18.08a.966.966 0 0 1-.37-.07c-1.17-.43-1.83-.49-2.2-.2-.28.22-.39.63-.32 1.29.08.81.04 3.31.01 4.81l-.01 1.04c0 .97.32 1.19.58 1.22.48.05 1.04-.64 1.14-1.2.67-4.02 2.41-3.98 5.29-3.9l1.31.02c1.05 0 1.41.95 1.41 1.39l.01 20.68c0 2.36-1.51 3.03-2.52 3.47-.47.21-.82.36-.82.64 0 .23-.06.45-.11.64-.07.25-.12.45-.01.58.1.12.28.11.41.1 3.82-.36 7.51-.15 9.49-.03.68.04 1.07.06 1.3.06.22 0 .29-.02.33-.06.03-.03.85-.86.69-1.31-.05-.15-.18-.23-.4-.26-2.25-.28-3.56-1.18-3.6-4.98v-19.47c0-.56.39-1.46 1.42-1.46l1.31-.02h.14c2.73-.07 4.11-.11 4.78 3.9.06.33.27.7.54.95.26.23.53.31.75.21.28-.13.43-.52.43-1.18l-.01-1.04c-.02-1.5-.07-4 .01-4.81.05-.58-.02-.96-.25-1.2Zm-117.3-.08c-2.09.2-5.38.09-7.34.02-1.72-.06-1.73-.05-1.78.01-.09.09-.5.74-.39 1.07.04.11.13.18.26.19h.3c.13 0 .24.01.34.04 2.09.5 2.57 3.23 2.12 5.56-.13.68-.35 1.39-.67 2.19l-5.39 13.52-6.32-15.09c-.7-1.83-1.28-3.68-.7-4.79.31-.59.94-.99 1.91-1.23l.69-.09c.13-.02.23-.09.26-.2.12-.35-.32-1.04-.42-1.13-.06-.06-.07-.07-2.26 0-2.42.07-6.48.18-8.71-.02-.12-.01-.2.02-.26.08-.11.12-.06.33-.01.56.03.14.06.28.06.4 0 .19.2.29.54.47.59.31 1.57.83 2.29 2.19 1.01 1.9 11.24 27.73 11.34 27.99.2.63.44.96.72.97h.02c.24 0 .45-.22.64-.66l1.45-3.97c2.76-7.57 8.51-23.33 9.22-24.71a4.195 4.195 0 0 1 1.86-1.94c.25-.14.42-.23.42-.41 0-.11.03-.25.05-.38.05-.24.09-.44-.02-.56-.03-.06-.11-.09-.22-.08Zm26.02 22.93c-.29-.11-.68.12-1.2.71-.12.14-.23.36-.36.65-.58 1.27-1.67 3.64-6.62 3.76-5.36.13-6.96-.33-7.1-2.05-.14-1.73-.01-10.14 0-11 1.96-.59 5.7-.99 5.73-.99 2.21-.1 3 2.33 3.12 3.28.05.44.24.59.38.65.19.08.43.02.64-.16.25-.21.47-.6.4-.98-.08-.39-.02-1.28.05-2.32.14-2.03.29-4.34-.44-4.69-.26-.13-.59-.01-1.01.38-.57.85-1.3 1.49-3 1.8-1.51.28-5.19.56-5.86.61v-9.43c1.05.14 2.34.06 3.7-.03 3.57-.23 7.62-.49 9.13 3.16.36 1.14.73 1.31.98 1.25.49-.12.78-1.29.59-2.37-.38-2.07-.76-5.32-.77-5.36l-.02-.14-.12.06c-.56.28-11 .24-16.61.22h-3.96c-1.45 0-1.63 1.45-1.63 1.47l-.01.11h.11c.02.01 1.43 0 2.54 1.09.89.88 1.34 2.22 1.34 3.97l-.07 19.35c0 2.05-1.42 2.57-2.36 2.91-.45.16-.78.28-.78.54 0 .64.64 1.48 1.32 1.48h18.29c.26 0 .58.08.92.16.37.09.74.17 1.06.17.22 0 .41-.04.56-.15a.783.783 0 0 0 .31-.58c.18-1.42 1.06-6.68 1.07-6.75.02-.07.02-.65-.32-.78Zm-55.71 6.63c-2.33-.29-3.16-1.5-3.16-4.64l-.03-20.62c0-2.06 1.37-2.47 2.27-2.74.44-.13.76-.23.76-.49 0-.2.05-.39.1-.56.06-.22.11-.4.01-.52-.09-.11-.25-.1-.37-.09-3.33.31-7.03.13-9.02.03-1.48-.07-1.65-.07-1.73 0-.08.08-.75.76-.61 1.16.03.09.12.21.36.24 1.84.23 4.02 1.26 4.02 4.89l.04 20.24c0 2.06-1.25 2.53-2.08 2.83-.4.15-.7.26-.7.52 0 .2-.05.39-.1.56-.06.22-.11.4-.01.52.09.11.25.1.37.09 3.36-.32 6.53-.13 8.23-.03l1.11.05c.19 0 .26-.02.29-.05.08-.08.75-.77.61-1.16-.03-.09-.12-.2-.36-.23Zm61.64-24.69c.02.68.14 22.03.14 22.24-.12 1.84-1.44 2.23-2.31 2.49-.43.13-.75.22-.75.47 0 .18-.05.35-.09.51-.06.2-.11.37-.01.49.09.11.25.11.36.09 3.2-.29 6.66-.12 8.52-.03 1.38.07 1.53.07 1.61 0 .07-.07.72-.7.59-1.07-.03-.09-.12-.2-.35-.23-1.98-.24-3.29-1.03-3.29-4.12v-10.03c1.25.14 1.86-.04 2.35.07 1.47.33 3.44 1.9 5.81 6.12.66 1.17 3.73 6.59 3.59 7.42-.06.35-.55.4-.89.45-.29.05-.56.09-.56.32 0 .18-.05.35-.09.51-.06.2-.11.37-.01.49.09.11.25.11.36.09 3.2-.29 6.58-.12 8.44-.03.69.03.04.05.26.05s.28-.02.32-.05c.07-.07.72-.7.59-1.07-.03-.09-.12-.2-.35-.23-2.04-.24-2.68-1.13-4.98-4.08-.61-.88-1.2-1.79-1.77-2.68-1.84-2.87-3.34-6.42-5.42-8 3.1-.31 4.53-2.03 5.55-3.23a8.04 8.04 0 0 0 1.89-5.57 6.532 6.532 0 0 0-1.95-4.4 7.24 7.24 0 0 0-5.33-1.78c-3.2.11-10.31.02-13.73-.23-.95-.07-1.61-.04-1.99.3-.24.22-.35.56-.35 1.07v.09l.09.01c-.01.02 3.68.53 3.75 3.55Zm4.41-1.92 4.1-.21c2.46-.21 4.53.79 5.55 2.67a4.762 4.762 0 0 1-.38 5.21c-1.66 2.13-5.04 2.75-9.27 1.7v-9.37Z"/></g></svg>