<svg xmlns="http://www.w3.org/2000/svg" fill="#fff" viewBox="0 0 107.4 12">
  <path
    d="M0 0h5.3v.5C4 .5 3.6.8 3.6 2.1v7.3c0 1.4.3 1.8 1.6 1.8v.5H0v-.5c1.5 0 1.5-.5 1.5-1.6V1.9C1.5.9 1.3.5 0 .5ZM6.1 11.4c.9 0 1.1-.2 1.2-1.4l.3-5.1c.1-1.2-.1-1.4-.9-1.4v-.4h2.6l3 6.5 2.8-6.5h2.6v.4c-.8 0-.9.2-.9.8l.5 6.3c.1.7.3.8 1.1.8v.4h-4v-.4c1.1 0 1.3-.3 1.2-1.8l-.4-5.1-3.2 7.3h-.5L8.4 4.7l-.3 5.1c-.1 1.5.2 1.5 1.1 1.6v.4H6.1ZM19.2 11.4c1 0 1.2-.2 1.2-1.5v-5c0-1.4-.2-1.5-1.3-1.5v-.3h1.4a14.4 14.4 0 0 1 1.8-.1c2.6 0 4.1.6 4.1 2.5 0 1.6-1.4 2.8-3.3 2.8a3.8 3.8 0 0 1-1.1-.1v1.9c0 1.1.3 1.3 1.6 1.3v.4h-4.3v-.4Zm2.7-3.7.6.1a2.2 2.2 0 0 0 2.2-2.3 2 2 0 0 0-2.1-2.1h-.7ZM29.7 10c0 1.2.2 1.4 1.4 1.4v.4h-4.3v-.4c1.2 0 1.3-.3 1.3-1.2V4.6c0-.9-.2-1.1-1.3-1.1v-.4l2-.1h1.7c2.8 0 3.8 1.2 3.8 2.5a2.5 2.5 0 0 1-1.8 2.3 9.4 9.4 0 0 1 1 1l.9.9a5.4 5.4 0 0 0 3.3 1.9v.4c-2.7.1-3.4-.4-4.7-1.7l-.7-.7a8 8 0 0 0-1.5-1.3h-1.2V10Zm0-2.2h.4c1.9-.1 2.5-.8 2.5-2.2a2 2 0 0 0-2.3-2.2 1.7 1.7 0 0 0-.7.1v4.3ZM42.4 2.9c3 0 5.1 1.8 5.1 4.4a4.8 4.8 0 0 1-5.1 4.7c-2.9 0-5-1.8-5-4.3-.1-2.8 2.1-4.8 5-4.8Zm.2 8.6c1.9 0 3.2-1.6 3.2-3.9 0-2.5-1.5-4.3-3.5-4.3S39 4.8 39 7.3c0 2.8 1.8 4.2 3.6 4.2ZM49 4.5c-.4-1-.5-1.1-1.4-1.1v-.3h4.3v.4c-1.1 0-1.3.3-1.3.6a3 3 0 0 0 .2.8l2.1 5.2 2-4.9a4.5 4.5 0 0 0 .3-1.1c0-.5-.4-.6-1.3-.6v-.4h3.4v.4c-1 0-1.2.5-1.6 1.6L52.8 12H52ZM57.7 11.8v-.4c1.1 0 1.4-.2 1.4-1v-6c0-.9-.5-.9-1.4-.9v-.4h7.1l.1 2.1h-.4l-.1-.3c-.3-1.1-.5-1.2-1.4-1.2h-2.5V7h2.2c.8 0 1-.1 1-1.1h.4v2.8h-.4c-.1-1-.3-1.1-1-1.1h-2.2v2.5c0 .9.1 1 .8 1H63c1.4 0 1.7-.2 2.1-1.6h.4l-.2 2.2h-7.6ZM72.2 11.8v-.5c1.5 0 1.8-.1 1.8-1.6V2.1C74 .8 73.9.4 72.2.5V0h6.2v.5c-2 0-2.3.1-2.3 1.5v8c0 .8.2.9 1 .9H79c1.6 0 1.7-.1 3.1-2h.6l-1.5 2.9ZM83.2 3.1h3.9v.4c-.9 0-1.2.2-1.2 1.2v5.4c0 1 .2 1.3 1.2 1.3v.4h-3.9v-.4c1.1 0 1.1-.4 1.1-1.2V4.5c0-.8-.2-1.1-1.1-1ZM90.7 10c0 1.1.2 1.3 1.2 1.3v.4H88v-.4c.9 0 1.1-.3 1.1-1.1V4.5c0-.8-.3-1-1.1-1v-.4h6.6v1.7h-.4c-.1-.9-.3-1.1-1.4-1.1h-2.2v3.1h2.2c.9 0 1-.1 1.1-.9h.4v2.6H94c-.1-.9-.3-1-1.2-1h-2.1ZM95.3 11.8v-.4c1.1 0 1.4-.2 1.4-1v-6c0-.9-.5-.9-1.4-.9v-.4h7.1l.1 2.1h-.4l-.1-.3c-.3-1.1-.5-1.2-1.4-1.2h-2.5V7h2.2c.8 0 1-.1 1-1.1h.4v2.8h-.4c-.1-1-.3-1.1-1-1.1h-2.2v2.5c0 .9.1 1 .8 1h1.5c1.4 0 1.7-.2 2.1-1.6h.4l-.2 2.2h-7.4ZM107.4 10.9c0 .7-.5 1.1-1.3 1.1s-1.3-.4-1.3-1.1a1.2 1.2 0 0 1 1.3-1.2 1.2 1.2 0 0 1 1.3 1.2Z"/>
</svg>
