<svg id="Layer_1" data-name="Layer 1" xmlns="http://www.w3.org/2000/svg" viewBox="0 0 183.03 54.03">
  <defs>
    <style>
      .cls-1 {
        font-family: Roboto-Regular, Roboto;
        font-size: 21.95px;
      }

      .cls-1, .cls-2 {
        fill: #fff;
      }

      .cls-3 {
        letter-spacing: 0em;
      }

      .cls-4 {
        letter-spacing: 0em;
      }

      .cls-5 {
        fill: #ba1436;
      }

      .cls-5, .cls-2 {
        stroke-width: 0px;
      }
    </style>
  </defs>
  <g>
    <rect class="cls-5" x="65.87" y="36.01" width="1.84" height="18.03"/>
    <rect class="cls-5" x="65.87" y="18.03" width="1.84" height="18.03"/>
    <rect class="cls-5" x="65.87" width="1.84" height="18.03"/>
  </g>
  <text class="cls-1" transform="translate(79.77 22.54)"><tspan x="0" y="0">Ridge</tspan><tspan class="cls-4" x="55.17" y="0">t</tspan><tspan class="cls-3" x="62.13" y="0">own</tspan><tspan x="0" y="23">Campus</tspan></text>
  <path class="cls-2" d="m42.34,29.74l-.41,1.49h.12c1.52,0,3.47.95,3.47,1.69v6.2s0,.02,0,.02c-.13.77-.86,3.3-5.01,3.3s-6.65-1.3-8.2-3.96c-1.49-2.57-1.68-6.03-1.68-8.77,0-4.13,1.37-8.19,3.66-10.86,2.07-2.42,6.04-2.36,9.65-1.99,3.33.34,4.3,5.57,4.31,5.62l.02.1,1.23-.41.24-8.65-.03-.03s-.52-.51-.93-.38c-.08.03-.2.08-.36.14-.54.21-1.45.57-1.99.57-.24,0-.69-.07-1.26-.17-1.07-.18-2.54-.42-4.08-.42-5.26,0-8.94,1.71-11.59,5.38-.79,1.1-1.48,2.27-2.04,3.49v-9.5s.01-.1.01-.1c0-3.95,1.51-4.24,2.33-4.39.27-.05.48-.09.57-.25.23-.42.34-.63.27-.8-.05-.12-.19-.18-.41-.23-.06,0-5.64-.07-10.15,0h-.03s-.02.02-.02.02c-.21.15-.88.65-.79.97.03.12.15.19.36.21,3.48.29,4.84,1.59,4.84,4.64v16.31c0,4.13-3.14,6.79-7.99,6.79s-7.98-3.23-7.98-8.22v-14.84c0-3.96,1.52-4.31,2.34-4.5.27-.06.48-.11.56-.26.23-.42.34-.63.27-.8-.05-.12-.19-.18-.39-.23h-.01s-.01,0-.01,0c-.06,0-6.04.35-10.37,0h-.03s-.03.02-.03.02c-.21.15-.88.65-.79.97.03.12.15.19.36.21,3.28.27,3.42,1.75,3.42,5.07v16.85s-.1,3.35,2.4,5.96c2.02,2.1,5.11,3.16,9.21,3.16,5.62,0,8.41-2.55,9.56-4.06.02-.02.34-.35.76-.94.18,1.47.49,2.94.93,4.36,1.82,5.91,8.65,7.9,11.48,7.9s2.88,0,5.33-1.6l.3-.2c1.38-.9,6.58-2.82,6.63-2.84l.06-.02v-8.73c0-1.45,2.51-2.04,2.54-2.05h.06s.14-1.25.14-1.25h-10.86Z"/>
</svg>