<svg id="Layer_1" data-name="Layer 1" xmlns="http://www.w3.org/2000/svg" viewBox="0 0 279.12 54.03">
  <defs>
    <style>
      .cls-1 {
        font-family: Roboto-Regular, Roboto;
        font-size: 21.95px;
      }

      .cls-1, .cls-2 {
        fill: #fff;
      }

      .cls-3 {
        letter-spacing: 0em;
      }

      .cls-4 {
        letter-spacing: 0em;
      }

      .cls-5 {
        fill: #ba1436;
      }

      .cls-5, .cls-2 {
        stroke-width: 0px;
      }
    </style>
  </defs>
  <g>
    <g>
      <path class="cls-2" d="m128.92,28.15c-2.03.18-3.98.07-5.03.02-.71-.04-.83-.04-.87,0-.05.04-.45.44-.37.67.03.08.1.13.22.14,1.28.15,1.57.64,1.57,2.61v3.71s-7.81,0-7.81,0v-4.6c0-1.19.65-1.42,1.08-1.58.21-.08.37-.13.37-.29,0-.11.03-.22.06-.32.04-.13.07-.23,0-.3-.05-.06-.15-.06-.23-.06-2.06.18-3.69.07-4.56.01-.55-.04-.64-.04-.69,0-.05.04-.45.44-.37.67.03.08.1.13.22.14,1.27.15,1.56.64,1.56,2.61v11.95c.01,1.19-.74,1.42-1.25,1.58-.25.08-.43.13-.43.29,0,.12-.03.22-.06.32-.04.13-.07.23,0,.3.05.06.15.06.23.06,2.05-.18,3.81-.07,4.76-.01.31.02.49.03.6.03s.14,0,.16-.03c.05-.04.45-.44.37-.67-.03-.08-.1-.13-.22-.14-1.28-.15-1.59-.66-1.59-2.61v-5.85s7.8,0,7.8,0v6.74c0,1.19-.68,1.42-1.13,1.58-.22.08-.39.13-.39.29,0,.12-.03.22-.06.32-.04.13-.07.23,0,.3.05.06.16.06.23.06,2.04-.18,3.87-.07,4.85-.01.65.04.75.04.8,0,.05-.04.45-.44.37-.67-.03-.08-.1-.13-.22-.14-1.28-.15-1.59-.66-1.59-2.61l-.02-11.95c0-1.18.81-1.42,1.35-1.58.26-.08.45-.13.45-.29,0-.11.03-.22.06-.32.04-.13.07-.23,0-.3-.05-.06-.15-.06-.23-.06Z"/>
      <path class="cls-2" d="m43.12,40.02h.08c1.06,0,2.41.66,2.41,1.17v4.29s0,.01,0,.02c-.09.54-.6,2.29-3.47,2.29-.05,0-.11,0-.16,0-3.66,0-5.36-2.09-6.13-3.85-1.79-4.07-.43-9.95,1.98-12.49.81-.86,2.76-2.17,6.69-1.38,2.26.46,2.99,3.87,3,3.9v.07s.86-.28.86-.28l.17-5.98v-.02c-.32-.42-.84-.22-1.34-.02-.32.13-.65.26-.93.25-2.54-.52-8.77-1.24-11.74,3.31-3.09,4.06-3.69,10.23-1.42,14.67,1.52,2.97,4.06,4.59,7.17,4.59.07,0,.15,0,.22,0q1.99,0,3.69-1.11l.21-.14c.96-.62,4.56-1.95,4.59-1.97h.04v-6.06c0-1.01,1.74-1.42,1.76-1.42h.04s.09-.86.09-.86h-7.51l-.28,1.02Z"/>
      <path class="cls-2" d="m68.12,28h0c-1.29.12-3.43.05-4.71.01-1.13-.04-1.14-.03-1.17,0-.03.03-.3.31-.25.48.01.04.05.09.16.11.92.11,2.46.71,2.43,2.2,0,.09-.08,9.19-.08,9.34,0,1.4-.7,2.56-1.96,3.26-1.48.83-3.4.82-4.77-.03-1.28-.79-1.95-2.23-1.87-4.05v-8.58c.01-1.29.73-1.54,1.2-1.71.22-.08.4-.14.4-.31,0-.13.03-.24.06-.35.04-.14.07-.25,0-.32-.06-.07-.16-.06-.23-.06-2.09.2-4.06.08-5.12.02-.71-.04-.83-.05-.87,0-.05.05-.46.48-.38.72.02.06.07.13.22.15,1.23.15,1.86.63,1.86,2.82l-.02,8.93c.02,1.73.75,3.21,2.1,4.26,1.19.93,2.81,1.45,4.47,1.45.02,0,.04,0,.06,0,3.34-.03,6.7-2.13,6.69-6.79,0-1.56.09-9.45.1-9.54,0-.8.81-1.05,1.34-1.22.28-.09.45-.14.45-.26,0-.07.02-.15.04-.23.03-.12.05-.22,0-.28-.03-.04-.09-.05-.16-.05Z"/>
      <path class="cls-2" d="m96.85,41.36s-.26,1.11-1.08,1.96c-.41.43-.98.73-1.63.86-1.75.35-3.94.49-4.84-.18-.26-.19-.4-.44-.43-.75-.04-.41-.01-12.43-.01-12.55,0-1.19.88-1.43,1.46-1.59.28-.08.49-.13.49-.29,0-.12.03-.23.06-.32.04-.13.06-.23,0-.31-.05-.06-.15-.06-.22-.06-1.93.18-4.09.07-5.26.02-.87-.04-.98-.04-1.02,0-.04.04-.43.44-.35.68.02.05.07.12.21.14,1.17.15,1.81.61,1.81,2.62,0,0,0,8.06,0,10.12,0,3.55-1.63,3.69-1.64,3.69h-.08s.22.66.22.66h.04c.08,0,8.07-.27,10.27-.09.21.02.41.04.59.05.32.03.58.06.79.06.41,0,.66-.09.82-.41.27-.54.45-4.24.45-4.39v-.07s-.65.11-.65.11v.04Z"/>
      <path class="cls-2" d="m109.92,29.06c-1.55-1.25-5.3-.96-8.31-.73-.92.07-1.78.14-2.45.15-.53-.03-.58-.02-.62.01-.05.04-.45.44-.37.67.03.08.1.13.22.14,1.31.16,1.66.69,1.66,2.61v11.46c.01,1.19-.7,1.47-1.18,1.65-.23.09-.4.16-.4.31,0,.11-.03.23-.06.32-.04.13-.07.23,0,.3.05.06.15.06.23.06,2.03-.18,4.06-.07,5.15-.02.39.02.6.03.73.03s.16-.01.18-.03c.05-.05.46-.54.37-.81-.02-.06-.07-.14-.22-.15-1.25-.15-2.02-.64-2.02-2.61v-4.38c0-.16.03-.28.1-.35.04-.04.1-.06.17-.06.2.01.43.03.67.05,1.64.12,4.12.31,5.71-.71,1.43-.93,2.34-2.56,2.35-4.25.01-1.5-.68-2.84-1.9-3.66Zm-3.08,7.17c-.43.2-.93.31-1.48.31h-.02c-1.55,0-2.13-.31-2.34-.55-.13-.15-.11-.27-.11-.28v-5.74c3.03-.59,5.21.18,5.83,2.06.52,1.59-.32,3.48-1.88,4.22Z"/>
      <path class="cls-2" d="m82.88,41.24c-.21-.05-.44.17-.73.66-.13.23-.24.45-.35.66-.55,1.1-.94,1.89-3.52,1.89-3.07,0-4.04-.16-4.12-1.19-.09-1.02,0-6.02,0-6.38.06-.08.45-.49,1.45-.49h1.77s1.57.14,1.9,1.82c.03.13.1.18.15.2.23.07.62-.3.66-.35l.02-.02v-3.6s-.06-.22-.24-.32c-.12-.07-.28-.07-.45,0h-.03s0,.04,0,.04c-.22.74-.93.78-2.18.78-1.18,0-2.71.21-3.05.26v-5.21h4.83s2.01.11,2.43,1.82c.17.69.41.89.58.93.13.03.27-.02.38-.15.23-.26.36-.86.13-1.44-.44-1.13-.44-3.07-.44-3.09v-.07l-1.35.14h-10.68c-.52,0-.85.12-.99.35-.16.28.04.61.04.63l.02.03h.04s.83-.03,1.47.59c.52.5.78,1.27.78,2.28v11.25c0,1.26-.72,1.57-1.2,1.77-.19.08-.33.14-.39.24-.21.39-.26.58-.19.7.07.12.25.11.49.11.06,0,.13,0,.2,0,.07,0,6.75-.18,10.62,0,.14,0,.29.04.45.08.18.04.37.08.56.08.25,0,.49-.08.65-.37.42-.73.62-3.81.63-3.95,0-.06-.07-.62-.36-.69Z"/>
      <g>
        <path class="cls-2" d="m17.74,39.8c.28.21.61.28.94.28.37,0,.73-.09,1.03-.18,1.28-.39,2.78-2.54,2.78-4.74,0-1.25-.45-2.06-1.26-2.27-1.11-.29-2.63.62-3.45,2.08-.38.68-.84,1.67-.83,2.54.01,1.14.28,1.91.79,2.29Zm1.08-4.16c.4-.73.9-1.22,1.39-1.36.09-.03.18-.04.27-.04.14,0,.28.04.41.11.61.35.49,1.82-.02,2.74-.53.95-1.07,1.6-1.96,1.67-.24.02-.43-.06-.55-.25-.34-.52-.14-1.75.47-2.87Z"/>
        <path class="cls-2" d="m30.98,27.33c-.19-.13-.47-.18-.75-.13-2.94.57-4.11,3.07-4.96,5.85-.44,0-.91,0-1.41-.03-.07,0-.13.03-.17.08-.04.05-.05.12-.03.18l.09.29c.09.28.35.47.65.47h.59c-.07.25-.14.49-.21.74-1.03,3.72-2.36,7.44-6.52,7-.1-.01-.22-.06-.29.01-.07.07-.1.17-.08.26l.03.22c.02.1.1.17.2.2,2.66.64,4.89-.89,5.91-2.24,1.12-1.48,1.8-3.47,2.28-5.5.06-.24.11-.47.17-.7,1.59-.02,1.76.09,1.86.16.06.04.12.07.28.07h0s.09-.02.11-.06c.03-.04.03-.08.02-.12l-.2-.63c-.09-.26-.33-.44-.61-.44h-1.21c.52-1.95,1.21-3.62,2.68-4.29h0s.02,0,.02,0c.35-.17.49-.15.55-.11.11.08.07.36.03.6-.04.3-.09.6.08.73.14.1.38.06.77-.13h.03s.37-2.01.37-2.01h0c-.03-.2-.13-.35-.28-.46Z"/>
      </g>
    </g>
    <g>
      <path class="cls-2" d="m20.88,5.13c-1.57.15-4.26.07-5.87.02-1.35-.04-1.43-.04-1.47,0-.05.05-.37.44-.29.66.02.05.06.11.18.13.56.07,1.4.29,2.08.7.85.51,1.27,1.18,1.26,2,0,.12.01,11.5.01,11.57-.1,1.91-1.05,3.42-2.67,4.24-1.83.93-4.22.78-5.94-.35-1.64-1.09-2.47-2.9-2.33-5.12l.02-10.58c0-1.58.96-1.96,1.6-2.21.3-.12.52-.2.52-.39,0-.17.05-.3.09-.4.03-.09.06-.16.02-.22-.04-.06-.14-.06-.28-.05-2.56.24-4.97.1-6.26.02-.85-.05-1-.06-1.06,0-.01.01-.04.04-.06.06-.22.2-.46.44-.4.61.03.09.12.14.26.16,1.54.19,2.31.78,2.31,3.47l-.02,11.25c.03,2.53,1.26,4.6,3.46,5.8,1.29.71,2.81,1.06,4.35,1.06,1.75,0,3.52-.46,4.97-1.36,2.44-1.52,3.72-4.06,3.59-7.17-.08-1.91-.03-11.42-.03-11.52,0-.99.96-1.3,1.6-1.5.32-.1.52-.17.52-.3,0-.1.03-.19.05-.27.03-.11.05-.2,0-.26-.05-.05-.13-.05-.19-.05Z"/>
      <path class="cls-2" d="m38.94,5.33c-1.22.12-3.25.05-4.46.01-1.08-.03-1.08-.03-1.11,0-.04.04-.3.41-.23.6.02.06.07.1.15.11.92.11,2.46.48,2.46,1.67l-.02,10.73c-.23-.2-1.04-1.19-3.8-5.14-2.57-3.68-5.51-8.04-5.54-8.08l-.03-.04h-.04s-.51.18-3.71-.08h-.02s-.02.01-.02.01c-.11.08-.65.48-.59.71.02.09.11.13.26.15,2.25.19,2.24.92,2.22,2.9,0,.2,0,.42,0,.65l-.02,11.36c0,.76-1.03,1.09-1.64,1.28-.36.11-.53.17-.53.28,0,.06-.01.15-.03.24-.03.19-.06.37.02.46.02.02.06.05.13.04,1.22-.11,3.41-.05,4.72-.01,1.19.03,1.19.03,1.22,0,.06-.06.3-.48.23-.68-.02-.06-.07-.11-.15-.11-.89-.11-2.37-.48-2.37-1.67v-10.62c.96,1.23,8.45,10.83,9.3,13.71,0,.02.12.4.37.46.02,0,.04,0,.06,0,.12,0,.25-.07.37-.22.23-.27.35-.31.49-.36.07-.03.14-.06.23-.11.33-.21.34-.37.36-.73v-.03s-.01-15.33-.01-15.33c0-.76.84-1.1,1.39-1.32.29-.12.46-.18.46-.29,0-.07.02-.15.03-.22.03-.11.05-.21,0-.28-.03-.04-.08-.05-.15-.04Z"/>
      <path class="cls-2" d="m149.17,5.39h0c-1.29.12-3.38.05-4.62.01-1.05-.03-1.1-.03-1.13,0-.03.03-.3.31-.25.48.01.04.05.09.16.11h.18c.08,0,.15.01.21.03.62.15,1.13.54,1.35,1.03.17.38.14.79-.08,1.19l-3.39,5.61c-.33-.57-2.26-3.9-3.08-5.32-.38-.76-.45-1.51-.19-2.01.18-.33.49-.53.93-.58h.34c.11-.02.15-.07.16-.11.06-.18-.23-.48-.26-.51-.03-.04-.09-.04-1.3,0-1.42.04-3.78.11-5.17-.02-.09,0-.15.01-.19.06-.07.08-.02.22.04.38.01.03.02.06.03.09.03.09.14.12.3.16.38.09,1.08.25,1.66,1.39l4.87,9.01.04,3.88c-.01,1.66-.75,1.79-1.19,1.87-.19.04-.36.07-.36.23,0,.13-.03.26-.06.37-.04.14-.07.26,0,.34.06.07.16.07.23.06,2.22-.21,3.99-.08,4.94-.02.3.02.47.03.58.03s.14-.01.16-.03c.02-.02.49-.49.4-.75-.03-.08-.11-.13-.23-.15-1.35-.17-1.71-.77-1.73-2.93v-3.62c.22-.37,4.67-8.34,4.72-8.43.51-.83,1.25-1.03,1.69-1.15.23-.06.37-.1.37-.21,0-.08.02-.15.04-.22.02-.09.05-.17,0-.22-.04-.05-.11-.05-.16-.04Z"/>
      <path class="cls-2" d="m116.39,22.28c-1.18-.15-1.81-.61-1.81-2.61l-.02-11.85c0-1.18.79-1.45,1.31-1.63.25-.09.43-.15.43-.3,0-.12.03-.23.06-.32.04-.13.06-.23,0-.3-.05-.06-.15-.06-.21-.05-1.91.18-4.04.07-5.19.02-.85-.04-.95-.04-.99,0-.04.04-.43.44-.35.67.02.05.07.12.21.14,1.06.13,2.31.73,2.31,2.82v11.7c.01,1.19-.71,1.42-1.18,1.58-.22.07-.4.13-.4.28,0,.12-.03.23-.06.32-.04.13-.06.23,0,.3.05.06.15.06.21.05,1.93-.18,3.75-.07,4.73-.02.33.02.52.03.64.03s.15,0,.17-.03c.04-.04.43-.44.35-.67-.02-.05-.07-.12-.21-.14Z"/>
      <path class="cls-2" d="m103.81,12.25c-.32-.04-.69-.1-1.06-.21-1.01-.31-2.74-1.05-3.01-2.57-.05-.26-.04-.53.03-.82.27-1.15,1.45-2.35,3.89-1.99,2.32.35,3.48,1.75,3.47,3,0,.06.05.1.1.08l.67-.2c.08-.02.13-.1.12-.18-.06-.44-.25-1.83-.25-2.34s.14-1.28.22-1.68-.04-.32-.04-.32c-.58.3-1.62.15-2.72,0-.78-.11-1.58-.23-2.23-.18-3.68.17-5.76,2.6-5.9,4.92-.07,1.11.3,2.18,1.04,3.02.83.94,2.11,1.58,3.69,1.85,2.56.56,4,1.19,4.32,2.94.1.54.06,1.1-.11,1.61-.69,2.05-2.81,2.37-4.56,1.99-2.97-.64-4.08-2.61-3.96-4.33,0-.03-.03-.06-.06-.05l-.87.29c-.05.02-.08.06-.08.12.1.88.2,2.44.02,3.18-.05.21.06.51.31.83.82,1.04,2.35,2.01,4.91,2.01.09,0,.18,0,.27,0,4.5,0,6.77-2.77,6.98-5.39.19-2.42-1.35-5.1-5.21-5.6Z"/>
      <path class="cls-2" d="m131.76,5.28c-.1-.11-.26-.15-.47-.14-.22.01-.49.08-.85.21-.07.03-.14.04-.21.04h-10.45c-.07,0-.14-.01-.21-.04-.68-.25-1.06-.28-1.27-.12-.16.13-.22.36-.18.75.05.47.02,1.91,0,2.78,0,.28,0,.49,0,.6,0,.56.18.69.34.7.28.03.6-.37.66-.69.39-2.32,1.39-2.3,3.06-2.25.24,0,.49.01.76.01.61,0,.81.55.81.8,0,.97,0,11.95,0,11.95,0,1.37-.88,1.75-1.45,2.01-.27.12-.47.21-.47.37,0,.13-.03.26-.07.37-.04.15-.07.26,0,.34.06.07.16.07.24.06,2.21-.21,4.34-.08,5.48-.02.39.02.62.03.75.03.13,0,.17-.01.19-.03.02-.02.49-.5.4-.76-.03-.08-.11-.14-.23-.15-1.3-.16-2.05-.68-2.08-2.88V7.97c0-.33.22-.84.82-.84.27,0,.52,0,.76-.01h.08c1.58-.04,2.37-.06,2.76,2.25.03.19.15.41.31.55.15.13.31.18.43.12.16-.07.25-.3.25-.68,0-.11,0-.32,0-.6-.01-.86-.04-2.31,0-2.78.03-.34-.01-.56-.14-.7Z"/>
      <path class="cls-2" d="m63.98,5.24h0c-1.21.11-3.11.05-4.24.01-.99-.03-1-.03-1.03,0-.05.05-.29.43-.23.62.02.06.07.1.15.11h.17c.07,0,.14,0,.19.02,1.21.29,1.48,1.87,1.23,3.21-.07.39-.2.81-.39,1.27l-3.12,7.81-3.65-8.72c-.41-1.06-.74-2.13-.4-2.77.18-.34.54-.57,1.1-.71l.4-.05c.08,0,.13-.05.15-.12.07-.2-.19-.6-.24-.65-.03-.03-.04-.04-1.31,0-1.4.04-3.74.11-5.03-.01-.07,0-.12,0-.15.05-.06.07-.04.19,0,.32.02.08.03.16.03.23,0,.11.12.17.31.27.34.18.91.48,1.32,1.27.58,1.1,6.49,16.02,6.55,16.17.12.37.26.55.42.56,0,0,0,0,.01,0,.14,0,.26-.13.37-.38.02-.06.33-.9.84-2.29,1.6-4.38,4.92-13.48,5.33-14.28.38-.73.82-.98,1.08-1.12.15-.08.24-.14.24-.24,0-.07.02-.14.03-.22.03-.14.05-.25,0-.32-.03-.04-.08-.05-.14-.04Z"/>
      <path class="cls-2" d="m79.01,18.48c-.17-.06-.39.07-.7.41-.07.08-.13.21-.21.38-.34.73-.96,2.1-3.82,2.17-3.1.08-4.02-.19-4.1-1.19-.08-1,0-5.86,0-6.36,1.13-.34,3.29-.57,3.31-.57,1.28-.06,1.73,1.35,1.8,1.9.03.25.14.34.22.38.11.04.25,0,.37-.1.15-.12.27-.34.23-.56-.04-.23-.01-.74.03-1.34.08-1.18.17-2.51-.26-2.71-.15-.07-.34,0-.58.22-.33.49-.75.86-1.73,1.04-.87.16-3,.32-3.38.35v-5.45c.6.08,1.35.04,2.14-.02,2.06-.13,4.4-.28,5.28,1.83.21.66.42.76.57.72.28-.07.45-.75.34-1.37-.22-1.2-.44-3.08-.44-3.09v-.08s-.08.04-.08.04c-.32.16-6.36.14-9.6.13-1.21,0-2.09,0-2.29,0-.84,0-.94.84-.94.85v.06s.06,0,.06,0c.01,0,.83,0,1.47.63.52.51.78,1.28.78,2.29l-.04,11.18c0,1.18-.82,1.48-1.36,1.68-.26.1-.45.16-.45.31,0,.37.37.85.76.85h10.57c.15,0,.34.04.53.09.21.05.43.1.61.1.12,0,.24-.02.32-.08.1-.07.16-.18.18-.33.1-.82.61-3.86.62-3.9,0-.04,0-.37-.2-.45Z"/>
      <path class="cls-2" d="m46.82,22.31c-1.35-.17-1.82-.87-1.82-2.68l-.02-11.92c0-1.19.79-1.43,1.31-1.59.25-.08.44-.13.44-.28,0-.12.03-.23.06-.32.04-.13.06-.23,0-.3-.05-.06-.15-.06-.21-.05-1.92.18-4.06.07-5.21.02-.85-.04-.96-.04-1,0-.04.04-.43.44-.35.67.02.05.07.12.21.14,1.06.13,2.32.73,2.32,2.82v11.71c.01,1.19-.71,1.46-1.19,1.64-.23.09-.4.15-.4.3,0,.12-.03.23-.06.32-.04.13-.06.23,0,.3.05.06.15.06.21.05,1.94-.18,3.77-.07,4.75-.02.33.02.53.03.64.03s.15,0,.17-.03c.04-.04.43-.44.35-.67-.02-.05-.07-.12-.21-.14Z"/>
      <path class="cls-2" d="m82.43,8.05c0,.39.08,12.73.08,12.85-.07,1.06-.83,1.29-1.33,1.44-.25.07-.43.13-.43.27,0,.1-.03.2-.05.29-.03.11-.06.21,0,.28.05.06.14.06.21.05,1.85-.17,3.85-.07,4.92-.02.8.04.89.04.93,0,.04-.04.41-.4.34-.62-.02-.05-.07-.12-.2-.13-1.14-.14-1.9-.59-1.9-2.38v-5.8c.72.08,1.08-.02,1.36.04.85.19,1.99,1.1,3.36,3.54.38.68,2.16,3.81,2.07,4.29-.04.2-.32.23-.51.26-.17.03-.32.05-.32.19,0,.1-.03.2-.05.29-.03.11-.06.21,0,.28.05.06.14.06.21.05,1.85-.17,3.8-.07,4.88-.02.4.02.02.03.15.03s.16-.01.18-.03c.04-.04.41-.4.34-.62-.02-.05-.07-.12-.2-.13-1.18-.14-1.55-.65-2.88-2.36-.35-.51-.69-1.04-1.02-1.55-1.06-1.66-1.93-3.71-3.13-4.62,1.79-.18,2.62-1.17,3.21-1.87.76-.9,1.15-2.07,1.09-3.22-.06-1-.46-1.9-1.13-2.54-.76-.71-1.82-1.07-3.08-1.03-1.85.06-5.96.01-7.93-.13-.55-.04-.93-.03-1.15.18-.14.13-.2.33-.2.62v.05h.05s2.15.3,2.19,2.05Zm2.55-1.11l2.37-.12c1.42-.12,2.62.46,3.2,1.54.53.98.44,2.16-.22,3.01-.96,1.23-2.91,1.59-5.36.98v-5.41Z"/>
    </g>
  </g>
  <g>
    <rect class="cls-5" x="160.95" y="36.01" width="1.84" height="18.03"/>
    <rect class="cls-5" x="160.95" y="18.03" width="1.84" height="18.03"/>
    <rect class="cls-5" x="160.95" width="1.84" height="18.03"/>
  </g>
  <text class="cls-1" transform="translate(175.86 22.54)"><tspan x="0" y="0">Ridge</tspan><tspan class="cls-4" x="55.17" y="0">t</tspan><tspan class="cls-3" x="62.13" y="0">own</tspan><tspan x="0" y="23">Campus</tspan></text>
</svg>