<svg xmlns="http://www.w3.org/2000/svg" style="height:100%" viewBox="0 0 712 300"><path fill="#FFF" d="M118 191h44l-1 5-1.7.4-2.2.5-2.3.5c-2 .4-2 .4-2.8 2.6-.2 2.8-.3 5.7-.3 8.5v2.3l-.3 8.3-.4 18.9h48l-.4-17.2v-5.4l-.2-4.3V209c-.1-4-.5-7.3-2.4-10.9-2.1-1.2-2.1-1.2-4.6-1.8l-2.5-.7-1.9-.5v-4h45l-1 5-6 1c-2.3.9-2.3.9-3.1 3.6-1 3.8-1.2 7.4-1.2 11.3v2.4a1241.9 1241.9 0 0 0 0 24 2885.5 2885.5 0 0 1 0 37.8v2.1c0 4.3.6 7.9 2.3 11.8a9.4 9.4 0 0 0 4.6 1.9l2.5.7 1.9.4v4h-45v-4l1.9-.5 2.5-.7 2.4-.7c2.3-1 2.3-1 3.3-3.1 1.2-4 1.3-7.8 1.3-12v-2.3l.2-8.5.4-19.2h-48l.3 20.8v6.6l.2 5.1V283.8l.1 2.2c.5 2.6 1.4 3.4 3.4 5l7 2v4h-44l1-5 1.7-.3 2.2-.5 2.3-.5 1.8-.7c1.3-3.8 1.1-7.3 1.1-11.2v-2.5a2939.2 2939.2 0 0 0 0-41.6 7577.2 7577.2 0 0 0 0-25.5v-2.4a26 26 0 0 0-1.1-8.8c-2.1-1-2.1-1-4.6-1.7l-2.5-.7-1.9-.6v-4ZM60.4 35.9c10.9-.3 26.3-.1 35.6 6.1 1.9 2.9 2.5 5.6 3 9l.7 3.3c.5 5.5.4 11.1.3 16.7h-7l-1-2.6c-3.7-10-6.5-17.3-16.5-22A39 39 0 0 0 46 47a31.1 31.1 0 0 0-16.2 19.3A66.6 66.6 0 0 0 26 84l-.2 2.8c-.4 16 2.8 32.3 14 44.4a36 36 0 0 0 22.7 8.9H67.7l9.3-.1v-26l-15-3v-5h47v5l-8 2v21l4 2-1 5c-25.7 8-53 12-78-1a49.8 49.8 0 0 1-23.7-31.5c-3.7-17-1.8-35 7.7-49.8C20.3 45 35.2 39.5 51.6 36.5c3-.4 5.9-.5 8.8-.6ZM357 190h8l1.4 2.6c11 21 11 21 22.4 41.9l1.4 2.6c2.7 5 5.7 10 8.8 14.9a2549 2549 0 0 0 28.7-56.4c2.2-4.5 2.2-4.5 3.3-5.6h7c1.1 3.4 1.3 6.2 1.5 9.7v2.1a1811.8 1811.8 0 0 1 1.4 24 13740 13740 0 0 0 1.8 34.7c.3 3.5.8 7 1.3 10.5l8 2v4h-37v-4l9-3c1-7.5 1-14.8.6-22.4l-.1-3.5c-.3-7-.8-14-1.5-21.1a53099.4 53099.4 0 0 0-15.5 32.6c-1.8 3.8-3.6 7.6-5.2 11.6l-1.5 3.5-1.2 3-1.6 2.3-7 1-27-54c-.8 5.6-.8 5.6-1.2 11.2l-.1 2.3v2.4l-.2 2.5a2062.7 2062.7 0 0 0-.5 18.2l-.1 2.4c0 4-.1 5.7 2.1 9 2 .8 2 .8 4.1 1.2l3.9.8v4h-29v-4l5.3-1.6c3.5-2.9 3.6-8.2 4-12.5a639.5 639.5 0 0 0 1-15.6 3742 3742 0 0 0 2-34.8c.4-6.2.8-12.4 1.7-18.5ZM466 60h36v4l-8 2-1 32h38l-.4-14.9-.2-4.7v-3.6l-.2-3.8c0-3 0-3-1.2-5l-7-2v-4h36v4l-3.4 1.4c-3.6 1.2-3.6 1.2-4.6 3.6a144 144 0 0 0-.1 8.4 1835.4 1835.4 0 0 0 0 32.9 4733 4733 0 0 0 0 20.1v3.7c0 3 0 3 1.1 5.9 3.5 1.2 3.5 1.2 7 2v5h-36v-5l3.4-.9 3.6-1.1c1.5-3 1.2-6.1 1.3-9.4v-2l.3-7.2.4-16.4h-38l.3 16.3v5.2l.2 4v2.1c0 2.9.2 5 1.9 7.3 2.1 1.4 4 1.8 6.6 2.1v5h-36v-5l3.4-.9 3.6-1.1c1.5-3 1.1-5.6 1.1-8.8V129a2277.6 2277.6 0 0 0 0-24.5v-13L474 66l-8-2v-4ZM631 191a3746.2 3746.2 0 0 1 39-.3h3.2c7.7 0 14.2 1 20.7 5.2 4.9 4.9 6.2 9.6 6.4 16.3a23 23 0 0 1-6.7 16.6 70.3 70.3 0 0 1-8.6 6.2c3.1 10.5 9.6 20.2 15.6 29.3l2 3.1a19 19 0 0 0 9.4 5.6v4l-9 .3h-2.6a20 20 0 0 1-16-5.7c-5.3-5.7-8.1-12.9-11.3-19.9l-1.4-2.8-1.2-2.7c-2.5-3.8-5.4-5-9.8-5.9l-2.7-.3a4283.4 4283.4 0 0 0 .7 22.5v3.6c.1 2.8.1 2.8 1.3 4.9l7 2v4h-36v-4l3.4-.9 3.6-1.1c1.4-2.9 1.1-5.4 1.1-8.6v-2a1954.5 1954.5 0 0 0 0-34 5032.4 5032.4 0 0 0 0-20.8V202c.1-2.8.1-2.8-1.1-4.9l-7-2v-4Zm27 6v37c11.7.5 11.7.5 20.3-4.8 3.9-5 4.1-10.3 4-16.4a20 20 0 0 0-6.9-13.2c-6-4-8.8-2.6-17.4-2.6ZM465 191a3746.2 3746.2 0 0 1 39-.3h3.2c7.3 0 14.1.6 20.2 5 3.9 4.7 6 8.2 5.6 14.3a22 22 0 0 1-8 16 61 61 0 0 1-6 4l2 .8c7.4 3.5 12.3 7 15.4 14.7 1.5 8.3.2 15-4 22.3-8.8 8-20 9.5-31.5 9.4h-3a2228.3 2228.3 0 0 1-32.9-.2v-4l8-3v-72l-8-3v-4Zm27 6v31c10.2.7 10.2.7 18-3 3.8-4.4 5-8.3 5-14-1-5.6-2.7-8.4-7-12-5-2.9-5-2.9-16-2Zm0 37v36c6.4 1.6 14 2.5 20-.7 4-3.1 6.3-6.3 7-11.3.5-6.5-.4-12-4.7-17-7.1-6.8-12.6-7-22.3-7ZM120 60h37v5l-8 1a4656.6 4656.6 0 0 0-.3 45.5V122c.7 6 3.8 10.1 8.3 14a25 25 0 0 0 18.5 3.6c5.7-1.7 9.5-4.2 12.7-9.5 3.6-6.8 4-13.2 4-20.8v-2.5a1878.3 1878.3 0 0 0 0-13c0-9.4-.3-18.5-1.2-27.8l-9-1v-5h30v5l-3 1.4c-3 1.3-3 1.3-4 3.6l-.2 4.6-.1 2.8-.1 3.1a14657 14657 0 0 1-.9 26.8v3c-.5 10.8-2.6 22.5-10.4 30.5-10.2 8.3-22.8 8.4-35.3 7.2-9.7-1.8-18-5.4-23.8-13.6a57 57 0 0 1-5.6-28.4v-3.3l-.1-13.8a1867.6 1867.6 0 0 0-.1-16.3v-2.5L128 68c-3-2-4.6-2.5-8-3v-5ZM245 191h36v5l-3.4.8-3.6 1.2c-1 3-1.1 4.8-1.2 7.9v9.6a2945.5 2945.5 0 0 0-.2 27.8c0 7.6 1.1 14 5 20.5a26.2 26.2 0 0 0 17 7.3c5.5-.2 10.3-1.3 14.5-4.9 9.8-10.5 8.1-24.7 7.9-38.2a538953547 538953547 0 0 0-.3-15.4v-4l-.2-3.7v-3.3l-.5-2.6a17.8 17.8 0 0 0-9-3v-5h30v5l-3 .9c-3.1.7-3.1.7-4 3.1-.8 7.3-1 14.7-1.2 22v2.2l-.2 8.4c-.2 13.6-.6 27.5-10 38-8 7.8-17.8 9-28.5 8.9a40.4 40.4 0 0 1-29.6-12c-6.5-8.1-7-18.7-7-28.6v-17.4a1950.9 1950.9 0 0 0 0-13.7l-.1-3v-2.6c-.5-2.7-1.2-3.6-3.4-5.2-2.6-.7-2.6-.7-5-1v-5ZM226 60h61c.7 3.4 1.1 5.9 1.1 9.2v7L288 82l-6 1-.5-2c-1.4-5.1-2.6-9.2-6.5-13-2.7-1-4.6-1.2-7.4-1.3l-2.4-.1-2.9-.2-9.3-.4v32l8.8-.3h2.8l2.2-.2h2.2c2.5-.6 3.4-1.5 5-3.5.7-3.1.7-3.1 1-6h5v27h-5l-.4-1.7-.5-2.2-.5-2.3c-.4-2-.4-2-2.6-2.8l-4.1-.3-2.2-.1-2.8-.2-8.9-.4v34c14.7 1.6 14.7 1.6 27.8-2.6 4-4.3 6-9.7 7.2-15.4h5c1 1 1 1 1.3 4.1-.1 6.7-1.3 15.8-4.3 21.9h-64v-5l3.4-.9 3.6-1.1c1.5-3 1.1-5.6 1.1-8.8V129a2277.6 2277.6 0 0 0 0-24.5v-13L234 66l-8-2v-4ZM385 60a3108.7 3108.7 0 0 1 35.6-.3h3c9 0 18.2 1.3 25.4 7.3 5.7 6.2 6.4 11.6 6.2 19.8-.5 7.2-3 11.7-8.2 16.7-3.1 2.4-6.4 4-10 5.5l-2.8 1.2c-5 1.2-10 1.5-15.2 1.8v-6l2-.7c6.2-2.3 11-4.3 14.1-10.6a32 32 0 0 0-.2-19.2c-3-4-6.1-6.9-10.9-8.5h-11a6904.5 6904.5 0 0 0-.3 64.1v3.8c0 3 0 3 1.6 5 2.7 1.8 5.5 1.8 8.7 2.1v5h-38v-5l3.4-.9 3.6-1.1c1.4-2.9 1.1-5.4 1.1-8.6v-2a1954.5 1954.5 0 0 0 0-34 5032.4 5032.4 0 0 0 0-20.8V71c.1-2.8.1-2.8-1.1-4.9l-7-2v-4ZM549 191h61c.7 3.4 1.1 5.9 1.1 9.2v7l-.1 5.8h-6l-.8-2.3-1-3-1-3c-1.5-3.4-3-5-6.2-6.7-1.5-.2-3-.2-4.6-.3l-2.4-.1-3.1-.2-9.9-.4v32l8.8-.3h2.8l2.2-.2h2.2c2.5-.6 3.4-1.5 5-3.5.7-3.1.7-3.1 1-6h5v27h-5l-.4-1.7-.5-2.2-.6-2.3c-.3-1.8-.3-1.8-1.5-2.8a67 67 0 0 0-6.6-.4l-3-.2-9.4-.4v34l10 .3h3.1A24 24 0 0 0 605 266c1.7-1.8 1.7-1.8 2.4-3.9l.9-2 2.7-8.1h6c.3 5.5-.4 10.5-1.4 15.9l-.4 2c-1 4.8-1 4.8-2.2 7.1h-64v-4l3.4-.8 3.6-1.2c1.1-3.4 1.1-6 1.1-9.5v-2a1827.6 1827.6 0 0 0 0-32.8 4720.2 4720.2 0 0 0 0-20.2V203c0-3 0-3-1.1-5.9-3.5-1.2-3.5-1.2-7-2v-4ZM0 164h710v3H0v-3ZM308 60h37v4l-1.7.5-2.2.8-2.3.7c-2 .8-2 .8-2.4 2.6-.5 3-.6 6-.6 9.1v2a2130.2 2130.2 0 0 0-.3 23.1l-.2 12.2-.3 24 7.2.5 2 .2c6.3.5 11 .2 16.3-3.4 3-2.8 4-5.2 5.3-9l1.3-3.6.9-2.7 6 1-.3 6.3-.2 3.6c-.6 5.1-2.1 10.1-3.5 15.1h-62v-5l8-2V67l-8-3v-4ZM154 0c7 0 7 0 9.3 2l2 2.8 2.3 3 1.2 1.6 5 6.5L179 23l1-23h7v38c-6 0-6 0-8.5-2l-2.3-2.8-2.6-3c-4-5-7.8-10-11.6-15.2l-1 23h-7V0ZM468.5.8c4.2 2.4 7 5.4 8.9 9.8a28.6 28.6 0 0 1-1 18.8 19.8 19.8 0 0 1-11.4 9.2c-6.1 1.2-11.6.5-17-2.6a21 21 0 0 1-7.8-12.9A25 25 0 0 1 445 5 23 23 0 0 1 468.5.8ZM451 10c-2.6 5-2.2 9.7-1 15 1.7 3.6 2.7 4.8 6 7 3.4.6 3.4.6 7 0a15 15 0 0 0 6-8c.8-7.6.8-7.6-1.9-14.6-2.7-3-3.4-3.3-7.4-3.7-4.4.4-5.8 1.1-8.7 4.3ZM279 0c17 0 17 0 23 3 2.8 4.2 2.7 8 2 13-2 3.1-2 3.1-4 5a208 208 0 0 0 7 16c-6.8 2-6.8 2-9 2a1982.7 1982.7 0 0 1-4.5-8.8c-2.5-5-2.5-5-2.5-7.2h-4v15h-8V0Zm8 6v11c2.9.3 2.9.3 6 0 2-1.6 2-1.6 3-4-.2-3.4-.6-4.6-3-7-3-.2-3-.2-6 0ZM665.5 377.7c4.1 3.8 7.2 7 7.7 12.7.2 6.4-.2 11.4-4.2 16.6-5 4-9.2 5.4-15.6 5.3a18 18 0 0 1-12.8-7.3 26 26 0 0 1-2.6-16c1.7-5.3 4.2-9 9-12 6-2 12.8-2 18.5.7Zm-16.4 6.3c-3.5 5-3.4 9-2.5 14.8 1.6 3.7 2.8 5.3 6.4 7.2 4.2 0 6.2-.3 9.4-3 2.4-4.5 3.3-9 2-14a12.2 12.2 0 0 0-5.4-7c-4.3-.6-6.3-.5-9.9 2ZM600.5 377.7c4.1 3.8 7.2 7 7.7 12.7.2 6.4-.2 11.4-4.2 16.6-5 4-9.2 5.4-15.6 5.3a18 18 0 0 1-12.8-7.3 26 26 0 0 1-2.6-16c1.7-5.3 4.2-9 9-12 6-2 12.8-2 18.5.7Zm-16.4 6.3c-3.5 5-3.4 9-2.5 14.8 1.6 3.7 2.8 5.3 6.4 7.2 4.2 0 6.2-.3 9.4-3 2.4-4.5 3.3-9 2-14a12.2 12.2 0 0 0-5.4-7c-4.3-.6-6.3-.5-9.9 2ZM496.5 377.7c4.1 3.8 7.2 7 7.7 12.7.2 6.4-.2 11.4-4.2 16.6-5 4-9.2 5.4-15.6 5.3a18 18 0 0 1-12.8-7.3 26 26 0 0 1-2.6-16c1.7-5.3 4.2-9 9-12 6-2 12.8-2 18.5.7Zm-16.4 6.3c-3.5 5-3.4 9-2.5 14.8 1.6 3.7 2.8 5.3 6.4 7.2 4.2 0 6.2-.3 9.4-3 2.4-4.5 3.3-9 2-14a12.2 12.2 0 0 0-5.4-7c-4.3-.6-6.3-.5-9.9 2ZM427.2 376.7c5.2 2.7 8 6.9 9.8 12.3.8 6.5-.2 11.6-4 17-3.9 4-7.6 6.1-13.2 6.3-5 0-8.8-1.3-12.8-4.3-5.1-6.4-5.6-12-5-20 1.8-5.3 4.6-7.8 9-11 4.6-2.3 11.4-1.8 16.2-.3Zm-14 7.6c-3.4 4.2-3.6 7.5-3.2 12.7 1.5 4 3 7.1 7 9 3.5-.1 6-.3 8.9-2.4 3.1-4.5 2.5-10.3 2.1-15.6-1.4-3.1-2-4.5-5-6-4.5-.5-6.3-.6-9.9 2.3ZM678 376c6 0 6 0 7.7 1.2l1.3 1.6 1.5 1.8 1.6 2 1.5 1.8c3.3 4 6.3 8.3 9.4 12.6l1-21h7v35c-7 0-7 0-9-1.5l-1.6-2-1.8-2.3-1.9-2.4-1.8-2.4L685 390l-1 21h-6v-35ZM509 376c6 0 6 0 7.7 1.2l1.3 1.6 1.5 1.8 1.6 2 1.5 1.8c3.3 4 6.3 8.3 9.4 12.6l1-21h7v35c-7 0-7 0-9-1.5l-1.6-2-1.8-2.3-1.9-2.4-1.8-2.4L516 390l-1 21h-6v-35ZM114 0h9v2.4l.4 10.8.2 3.9v3.6l.2 3.4c.1 3.1.1 3.1 1.2 6.9h9c3.9-5.9 3.6-12 3.7-18.9V8.6L138 0h7a1012.3 1012.3 0 0 1 .4 22.9v3.7c-.5 4-1.9 6.2-4.4 9.4-4.8 3.5-10.7 3.4-16.4 2.6-4.2-1-5.8-2.3-8.6-5.6-2.4-7-2.2-13.7-2.1-21V8.5L114 0ZM442 376c16 0 16 0 21 3 2.5 2.5 2.3 3.4 2.3 6.9v2.6c-.4 3-1.2 4.3-3.3 6.5h-2l1.8 3 2.2 3.9 1.2 2c2.8 4.9 2.8 4.9 2.8 7.1l-9 1-3-5.9-1.7-3.3C453 400 453 400 453 398h-4v13h-7v-35Zm7 6v10l7-1c.7-3.4.7-3.4 1-7-1.9-2.3-1.9-2.3-5.1-2.1l-2.9.1ZM210 0h8c3.4 8.2 6.3 16.6 9 25 2.9-7 5.5-14 8-21.2 1-2.8 1-2.8 2-3.8h7c-.6 5.1-1.7 9.4-3.7 14.2l-.8 2a834.7 834.7 0 0 1-4.2 10.4c-4.1 10.2-4.1 10.2-5.3 11.4h-7l-5-12-1.1-2.8L213 14l-1.2-3-1.2-3-1-2.6C209 3 209 3 210 0ZM249 0h21v6h-12v9h12v6h-12v11h14v6h-23V0ZM323.9-.2h3.2c2.8.2 4.5.7 6.9 2.2l-2 5h-10c.3 3.4.8 4.8 3.2 7.4l2.7 2.2c7 5.8 7 5.8 7.5 11.3 0 3.4-.4 4-2.6 7-5.4 4-8.8 4.3-15.4 3.6-2.4-.5-4.2-1.3-6.4-2.5l1-5c3-1 3-1 5.4 0 3 1.2 4.5.9 7.6 0 .1-2.9.1-4.4-1-7-2.4-2.3-5-4.3-7.7-6.2C314 16 314 16 312 13c-.5-4.2-.5-6.3 1.9-9.9 3.3-3.3 5.4-3.3 10-3.3ZM390 0h9l6 14 8-14h7c-.4 4.1-2 6.8-4.2 10.3-5.9 9.2-7.1 16.9-6.8 27.7h-9l.1-2.8c0-10.3-2.5-17.2-7.7-26L391.1 7l-1.3-2C389 3 389 3 390 0ZM356 0h31v6h-11v32h-9V6h-11V0ZM485 0h21v6h-13v11h13v6h-13v15h-8V0ZM543 376h29v6h-11v29h-8v-29h-10v-6ZM372 376h29v6h-11v29h-8v-29h-10v-6ZM342 0h9v38h-9V0ZM196 0h9v38h-9V0Z"/></svg>