<svg id="Layer_1" data-name="Layer 1" xmlns="http://www.w3.org/2000/svg" style="height:100%" viewBox="0 0 266.13 110.89"><defs><style>.cls-1,.cls-2{fill:#fff;}.cls-2{stroke:#fff;stroke-linecap:round;stroke-linejoin:round;stroke-width:1.5px;}</style></defs><path class="cls-1" d="M411.7,171.24v7.91c0,2.7.79,4.18,3,4.18s3-1.8,3-4v-8.07h2.48v8.56c0,3.49-2.25,5.46-5.52,5.46-3.74,0-5.69-1.84-5.69-5.6v-8.42Z" transform="translate(-365.74 -171)"/><path class="cls-1" d="M435.78,185h-2c-2.64-3.17-5.27-6.32-7.87-9.89h0V185h-2.23V171.24h2c2.64,3.15,5.26,6.28,7.86,9.82h0v-9.82h2.22V185Z" transform="translate(-365.74 -171)"/><polygon class="cls-1" points="73.7 14.02 73.7 0.24 76.48 0.24 76.48 14.02 73.7 14.02 73.7 14.02"/><path class="cls-1" d="M449.41,185l-5.12-13.59,2.95-.39c1.22,3.5,2.42,7,3.62,11h0c1.26-4,2.54-7.49,3.82-11l2.39.39L451.67,185Z" transform="translate(-365.74 -171)"/><polygon class="cls-1" points="100.87 2.09 96.25 2.09 96.25 5.87 100.78 5.87 100.78 7.72 96.25 7.72 96.25 12.17 101.72 12.17 101.72 14.02 93.47 14.02 93.47 0.24 100.87 0.24 100.87 2.09 100.87 2.09"/><path class="cls-1" d="M473.05,173.09h1.44a2,2,0,0,1,2.21,2.08,2.39,2.39,0,0,1-2.52,2.49h-1.13v-4.57ZM470.28,185h2.77v-5.51h1.66l2.8,5.75,2.91-.54-3.27-5.88a4.35,4.35,0,0,0,2.32-4c0-2.34-1.77-3.6-4.41-3.6h-4.78V185Z" transform="translate(-365.74 -171)"/><path class="cls-1" d="M489.56,173.64a4.12,4.12,0,0,0-2.23-.79c-1.16,0-1.79.65-1.79,1.46s1,1.59,2.58,2.87c1.85,1.48,2.83,2.64,2.83,4.33s-1.65,3.75-4.76,3.75a6.19,6.19,0,0,1-4.06-1.38l1-1.58a4.57,4.57,0,0,0,2.81,1.1,1.92,1.92,0,0,0,2.15-1.91c0-1.51-1.85-2.52-3-3.38-1.33-1.08-2.46-1.93-2.46-3.76s1.87-3.35,4.37-3.35a5.13,5.13,0,0,1,3.49,1.2l-1,1.44Z" transform="translate(-365.74 -171)"/><polygon class="cls-1" points="128.3 14.02 128.3 0.24 131.08 0.24 131.08 14.02 128.3 14.02 128.3 14.02"/><polygon class="cls-1" points="137.56 14.02 137.56 2.09 133.3 2.09 133.3 0.24 144.59 0.24 144.59 2.09 140.33 2.09 140.33 14.02 137.56 14.02 137.56 14.02"/><path class="cls-1" d="M515.59,185v-5.77l-4.24-7.82,3.11-.39c1,2,1.91,4,2.88,6.36,1.06-2.38,2.14-4.37,3.21-6.36l2.28.39-4.47,7.82V185Z" transform="translate(-365.74 -171)"/><path class="cls-1" d="M537.52,183.29c-2.89,0-3.92-2.72-3.92-5.36s1.16-5,3.92-5,3.92,2.42,3.92,5-1,5.36-3.92,5.36Zm0,2c4.23,0,6.87-3.21,6.87-7.33a6.87,6.87,0,1,0-13.74,0c0,4.12,2.64,7.33,6.87,7.33Z" transform="translate(-365.74 -171)"/><polygon class="cls-1" points="188.95 2.09 184.34 2.09 184.34 6.62 188.87 6.62 188.87 8.47 184.34 8.47 184.34 14.02 181.56 14.02 181.56 0.24 188.95 0.24 188.95 2.09 188.95 2.09"/><path class="cls-1" d="M451,280.31c-3-.43-3-1.21-3-7.24v-21.9c0-6,0-6.81,3-7.24l1.31-.17v-1.41h-16.2v1.41l1.38.17c2.89.43,2.89,1.21,2.89,7.24V260H422.08v-8.87c0-6,0-6.75,2.9-7.18l1.37-.17v-1.41h-16.2v1.41l1.38.17c2.89.43,2.89,1.21,2.89,7.24v22c0,6,0,6.75-2.9,7.18l-1.37.17v1.41h16.2v-1.41l-1.37-.17c-2.9-.43-2.9-1.2-2.9-7.18V262.52h18.33v10.55c0,6,0,6.81-2.89,7.24l-1.38.17v1.41h16.2v-1.41l-1.31-.17Z" transform="translate(-365.74 -171)"/><path class="cls-1" d="M494.24,273.13l1.26-.24c1.41-.29,2.09-.63,2.33-3.93l1.65-26.61a10.55,10.55,0,0,1,2.43-.29l13,24.28,12.13-24a8.42,8.42,0,0,1,2.43-.29l1.46,26.46c.19,3.69.82,4.13,2.33,4.37l1.45.24v1.27H521v-1.27l1.6-.24c2.19-.39,2.58-.58,2.48-3.79l-.63-16.7h-.1l-10.14,21.51a8.88,8.88,0,0,1-1.85.49l-11-22h-.1l-.58,16.7c-.14,3.21.3,3.36,2.47,3.79l1.61.24v1.27H494.24v-1.27Z" transform="translate(-365.74 -171)"/><path class="cls-1" d="M549.56,244.54a8.41,8.41,0,0,1,2.47-.34c3.74,0,6.31,2.28,6.31,6,0,5.24-3.29,6.26-7,6.26h-1.8V244.54ZM539.8,274.4h12.62c7.24,0,13.79-2,13.79-9.13,0-6-5.19-7.91-8.2-8.35v-.1c2.57-.78,6.65-2.57,6.65-7.76,0-6.71-8.06-6.71-10.39-6.71H539.8v1.27l1.16.14c2.29.44,2.29.3,2.29,5.69v17.76c0,5.49,0,5.29-2.29,5.78l-1.16.14v1.27Zm9.76-16.07h2.09c5.87,0,8.25,3.79,8.25,7.62s-1.94,6.6-6.41,6.6a11,11,0,0,1-3.93-.78V258.33Z" transform="translate(-365.74 -171)"/><path class="cls-1" d="M571,273.13l1.16-.14c2.29-.44,2.29-.29,2.29-5.78V249.54c0-5.48,0-5.25-2.29-5.78l-1.16-.14v-1.27h22.38a36,36,0,0,1,.58,7.87l-1.75.24c-1.26-6.17-2.86-6.26-8-6.26h-3.5v12.48h3.3c4.32,0,5-.05,5.29-2.09l.25-1.7h1.25v9.66h-1.25l-.25-1.55c-.34-2.14-1.06-2.14-5.09-2.14h-3.5v13a20.88,20.88,0,0,0,4.9.73c7.28,0,7.82-3.74,8.79-7.38l1.74.34a34.28,34.28,0,0,1-1.6,8.89H571v-1.27Z" transform="translate(-365.74 -171)"/><path class="cls-1" d="M611.52,244.54a8.58,8.58,0,0,1,2.53-.34c3.89,0,6.85,2.53,6.85,7,0,2.09-.15,7.47-7,7.47h-2.38V244.54Zm0,16h1.56c3,0,3.15,1.8,4.86,5.05l1.84,3.59c1.07,2.14,3,5.25,7.86,5.25h4.23v-1.27a4.15,4.15,0,0,1-3.11-1.31A77.92,77.92,0,0,1,621,258.76c2.77-1.26,6.22-4,6.22-8.3,0-7.62-7-8.11-11.46-8.11h-14v1.27l1.11.14c2.33.34,2.33.83,2.33,5.73v17.72c0,4.86,0,5.44-2.28,5.78l-1.16.14v1.27H615v-1.27L613.8,273c-2.28-.34-2.28-.92-2.28-5.73v-6.75Z" transform="translate(-365.74 -171)"/><path class="cls-1" d="M480.71,242.43v1.44l.92.11.42.05h0c2.13.29,2.51.34,2.55,3.48l.2,12.44a39.67,39.67,0,0,1-.26,5c-.72,5.67-4.68,7.68-8.15,7.68-5.34,0-8.93-3.48-8.93-8.67V249.59c0-4.73,0-5.23,2.16-5.55l1.24-.16v-1.45H457.6v1.45l1.25.17c2.15.31,2.15.81,2.15,5.54v11.83c0,9.17,4.78,13.63,14.62,13.63,7.88,0,12.11-4.35,12.56-12.93l.07-2.24.29-11.76c0-3.25.69-3.56,2-3.92l1-.29v-1.48Z" transform="translate(-365.74 -171)"/><line class="cls-2" x1="0.75" y1="61.79" x2="264.97" y2="61.79"/><path class="cls-1" d="M402.13,185.86a.08.08,0,0,1,0,0h0l0,0Z" transform="translate(-365.74 -171)"/><path class="cls-1" d="M389.41,210.89v1.42l2.88.41c1.56.28,2.34.47,2.75,1.15s.39,1.73.39,3.86v5.85h-.07a29,29,0,0,1-4.58.43,14.12,14.12,0,0,1-11.22-5c-2.83-3.36-4.33-8.26-4.33-14.16,0-5.29,1.09-9.7,3.14-12.75,2.34-3.45,5.84-5.2,10.42-5.2,4.17,0,7.32,1.26,9.34,3.75a15.88,15.88,0,0,1,2.81,6.56l.07.27,2.2-.29a38.16,38.16,0,0,0-1.31-10.1c-2.42-1.15-5.78-2.32-12.33-2.32-6.2,0-11.81,1.66-15.78,4.69a17.3,17.3,0,0,0-5.2,6.36,21.87,21.87,0,0,0-2,9.51c0,7.09,2.34,12.5,7,16.08,4,3.08,9.67,4.71,16.42,4.71a46.74,46.74,0,0,0,14.8-2.88l.28-.1-.17-1.25h-.07c-.71,0-1.19-.09-1.44-.69a12.19,12.19,0,0,1-.3-3.83c0-3.71.07-4.51,2.17-4.9l1.14-.16v-1.42Z" transform="translate(-365.74 -171)"/><path class="cls-1" d="M450.45,224.29l1.17-.14c2.28-.44,2.28-.3,2.28-5.78V200.7c0-5.49,0-5.24-2.28-5.78l-1.17-.14v-1.27h22.38a36,36,0,0,1,.58,7.87l-1.74.24c-1.27-6.16-2.87-6.26-8-6.26h-3.5v12.48h3.3c4.32,0,5-.05,5.29-2.09l.24-1.7h1.27v9.66H469l-.24-1.55c-.34-2.14-1.06-2.14-5.09-2.14h-3.5v13a20.89,20.89,0,0,0,4.91.73c7.27,0,7.81-3.74,8.78-7.38l1.75.34a34.78,34.78,0,0,1-1.6,8.89h-23.6v-1.27Z" transform="translate(-365.74 -171)"/><path class="cls-1" d="M481.26,224.29l1.17-.14c2.28-.44,2.28-.25,2.28-5.78V200.55c0-4.71,0-5.29-2.28-5.63l-1.17-.14v-1.27h13.2v1.27l-1.17.14c-2.27.34-2.27.92-2.27,5.63V223a19.72,19.72,0,0,0,4.46.68c6.84,0,6.89-3.3,8.29-7.34l1.76.35a35,35,0,0,1-1.71,8.84H481.26v-1.27Z" transform="translate(-365.74 -171)"/><path class="cls-1" d="M509.91,224.29l1.17-.14c2.28-.25,2.28-.93,2.28-5.73V200.7c0-4.76,0-5.49-2.28-5.78l-1.17-.14v-1.27h12.91c6,0,13,1.07,13,8.6,0,8.2-8,10.29-13.06,10.43V210.7c3.6-.49,6.75-2,6.75-7.91,0-5.1-3.35-7.43-7.42-7.43a9.51,9.51,0,0,0-2.39.34v22.72c0,4.8.06,5.48,2.34,5.73l1.84.14v1.27H509.91v-1.27Z" transform="translate(-365.74 -171)"/><path class="cls-1" d="M543.57,200.7c0-4.86,0-5.44-2.28-5.78l-1.16-.14v-1.27h13.2v1.27l-1.16.14c-2.29.34-2.29.92-2.29,5.73v7.09h14.66v-7c0-4.86,0-5.44-2.28-5.78l-1.16-.14v-1.27h13.21v1.27l-1.12.14c-2.34.34-2.34.92-2.34,5.78v17.67c0,4.85,0,5.43,2.34,5.78l1.12.14v1.27H561.1v-1.27l1.16-.14c2.28-.35,2.28-.93,2.28-5.78v-8.45H549.88v8.5c0,4.8,0,5.38,2.29,5.73l1.16.14v1.27h-13.2v-1.27l1.16-.14c2.28-.35,2.28-.93,2.28-5.73V200.7Z" transform="translate(-365.74 -171)"/><path class="cls-1" d="M434.13,193.52V195l1.11.12.23,0h0c2.12.29,2.5.35,2.55,3.48l.19,12.44a38,38,0,0,1-.26,5c-.72,5.67-4.68,7.69-8.15,7.69-5.34,0-8.93-3.49-8.93-8.68V200.69c0-4.74,0-5.23,2.17-5.55l1.24-.16v-1.46H411V195l1.25.16c2.15.32,2.15.81,2.15,5.55v11.83c0,9.16,4.79,13.62,14.63,13.62,7.88,0,12.1-4.35,12.55-12.92l.07-2.25.3-11.76c0-3.25.68-3.56,2-3.92l1-.28v-1.49Z" transform="translate(-365.74 -171)"/></svg>